<?xml version="1.0" encoding="iso-8859-1"?>
<!-- Generator: Adobe Illustrator 19.0.0, SVG Export Plug-In . SVG Version: 6.00 Build 0)  -->
<svg version="1.1" id="Layer_1" xmlns="http://www.w3.org/2000/svg" xmlns:xlink="http://www.w3.org/1999/xlink" x="0px" y="0px"
	 viewBox="0 0 512 512" style="enable-background:new 0 0 512 512;" xml:space="preserve">
<g>
	<g>
		<g>
			<path d="M502.746,493.494h-4.677c1.028-2.897,1.593-6.011,1.593-9.255c0-6.861-2.498-13.326-6.91-18.322
				c0.49-2.076,0.742-4.208,0.742-6.35c0-12.062-7.737-22.347-18.506-26.166V107.951c0-5.111-4.143-9.253-9.253-9.253H326.939V9.253
				c0-5.111-4.143-9.253-9.253-9.253H46.266c-5.11,0-9.253,4.142-9.253,9.253V433.4c-10.769,3.82-18.506,14.104-18.506,26.166
				c0,2.142,0.252,4.275,0.741,6.35c-4.411,4.997-6.91,11.46-6.91,18.322c0,3.245,0.565,6.359,1.593,9.255H9.254
				c-5.11,0-9.253,4.142-9.253,9.253c0,5.11,4.143,9.253,9.253,9.253h493.492c5.11,0,9.253-4.143,9.253-9.253
				C511.999,497.636,507.856,493.494,502.746,493.494z M326.939,117.204h129.542v316.201c-1.052,0.375-2.084,0.807-3.084,1.308
				c-3.806-1.898-8.021-2.904-12.337-2.904c-4.317,0-8.531,1.007-12.337,2.904c-3.806-1.898-8.02-2.904-12.337-2.904
				c-4.317,0-8.531,1.007-12.337,2.904c-3.806-1.898-8.02-2.904-12.337-2.904s-8.531,1.007-12.337,2.904
				c-3.806-1.898-8.021-2.904-12.337-2.904c-4.317,0-8.531,1.007-12.337,2.904c-3.806-1.898-8.02-2.904-12.337-2.904
				c-4.317,0-8.531,1.007-12.337,2.904c-1.002-0.5-2.032-0.933-3.084-1.308V117.204z M55.519,18.506h252.914v89.445v325.454
				c-1.052,0.375-2.084,0.807-3.084,1.308c-3.806-1.898-8.021-2.904-12.337-2.904c-3.182,0-6.306,0.551-9.253,1.598v-4.686
				c0-5.111-4.143-9.253-9.253-9.253s-9.253,4.142-9.253,9.253v3.263c-3.231,0.362-6.36,1.287-9.253,2.729
				c-2.893-1.442-6.022-2.368-9.253-2.729v-3.263c0-5.111-4.143-9.253-9.253-9.253s-9.253,4.142-9.253,9.253v4.684
				c-2.947-1.046-6.071-1.598-9.253-1.598c-3.182,0-6.306,0.551-9.253,1.598v-4.684c0-5.111-4.143-9.253-9.253-9.253
				c-5.11,0-9.253,4.142-9.253,9.253v3.263c-3.231,0.362-6.36,1.287-9.253,2.729c-2.893-1.442-6.022-2.368-9.253-2.729v-3.263
				c0-5.111-4.143-9.253-9.253-9.253s-9.253,4.142-9.253,9.253v4.684c-2.947-1.046-6.071-1.598-9.253-1.598
				c-3.182,0-6.306,0.551-9.253,1.598v-4.684c0-5.111-4.143-9.253-9.253-9.253c-5.11,0-9.253,4.142-9.253,9.253v3.263
				c-3.231,0.362-6.36,1.287-9.253,2.729c-2.893-1.442-6.022-2.368-9.253-2.729v-3.263c0-5.111-4.143-9.253-9.253-9.253
				s-9.253,4.142-9.253,9.253v4.684c-2.947-1.046-6.071-1.598-9.253-1.598c-4.317,0-8.531,1.007-12.337,2.904
				c-1.002-0.5-2.032-0.933-3.084-1.308V18.506z M471.925,493.492c-0.016,0-0.031,0.003-0.048,0.003H40.146
				c-0.017,0-0.032-0.003-0.048-0.003c-5.103,0-9.253-4.15-9.253-9.253c0-3.162,1.605-6.076,4.292-7.795
				c4.14-2.648,5.489-8.069,3.072-12.347c-0.793-1.405-1.195-2.928-1.195-4.53c0-5.103,4.15-9.253,9.253-9.253
				c2.903,0,4.951,1.292,6.159,2.375c3.516,3.155,8.842,3.155,12.358,0c1.208-1.083,3.256-2.375,6.159-2.375
				c2.902,0,4.951,1.292,6.159,2.375c3.516,3.155,8.842,3.155,12.358,0c1.208-1.083,3.256-2.375,6.159-2.375
				s4.951,1.292,6.159,2.375c3.516,3.155,8.842,3.155,12.358,0c1.208-1.083,3.256-2.375,6.159-2.375
				c2.902,0,4.951,1.292,6.159,2.375c3.516,3.155,8.842,3.155,12.358,0c1.208-1.083,3.256-2.375,6.159-2.375
				c2.902,0,4.951,1.292,6.159,2.375c3.516,3.155,8.842,3.155,12.358,0c1.208-1.083,3.256-2.375,6.159-2.375
				c2.902,0,4.951,1.292,6.159,2.375c3.516,3.155,8.842,3.155,12.358,0c1.208-1.083,3.256-2.375,6.159-2.375
				c2.902,0,4.951,1.292,6.159,2.375c3.516,3.155,8.842,3.155,12.358,0c1.208-1.083,3.256-2.375,6.159-2.375
				c2.902,0,4.951,1.292,6.159,2.375c3.516,3.155,8.842,3.155,12.358,0c1.208-1.083,3.256-2.375,6.159-2.375
				c2.902,0,4.951,1.292,6.159,2.375c3.516,3.155,8.842,3.155,12.358,0c1.208-1.083,3.256-2.375,6.159-2.375
				c2.902,0,4.951,1.292,6.159,2.375c3.516,3.155,8.842,3.155,12.358,0c1.208-1.083,3.256-2.375,6.159-2.375
				c2.902,0,4.951,1.292,6.159,2.375c3.516,3.155,8.842,3.155,12.358,0c1.208-1.083,3.256-2.375,6.159-2.375
				c2.902,0,4.951,1.292,6.159,2.375c3.516,3.155,8.842,3.155,12.358,0c1.208-1.083,3.256-2.375,6.159-2.375
				c2.902,0,4.951,1.292,6.159,2.375c3.516,3.155,8.842,3.155,12.358,0c1.208-1.083,3.256-2.375,6.159-2.375
				c2.902,0,4.951,1.292,6.159,2.375c3.516,3.155,8.842,3.155,12.358,0c1.208-1.083,3.256-2.375,6.159-2.375
				c2.902,0,4.951,1.292,6.159,2.375c3.516,3.155,8.842,3.155,12.358,0c1.208-1.083,3.256-2.375,6.159-2.375
				c2.902,0,4.951,1.292,6.159,2.375c3.516,3.155,8.842,3.155,12.358,0c1.208-1.083,3.256-2.375,6.159-2.375
				c2.902,0,4.951,1.292,6.159,2.375c3.516,3.155,8.842,3.155,12.358,0c1.208-1.083,3.256-2.375,6.159-2.375
				c5.103,0,9.253,4.15,9.253,9.253c0,1.603-0.402,3.125-1.195,4.53c-2.418,4.279-1.068,9.7,3.072,12.347
				c2.688,1.72,4.293,4.634,4.293,7.795C481.178,489.341,477.028,493.492,471.925,493.492z"/>
			<path d="M354.698,166.553h74.024c5.11,0,9.253-4.142,9.253-9.253c0-5.111-4.143-9.253-9.253-9.253h-74.024
				c-5.11,0-9.253,4.142-9.253,9.253C345.445,162.412,349.588,166.553,354.698,166.553z"/>
			<path d="M354.698,215.903h74.024c5.11,0,9.253-4.142,9.253-9.253s-4.143-9.253-9.253-9.253h-74.024
				c-5.11,0-9.253,4.142-9.253,9.253S349.588,215.903,354.698,215.903z"/>
			<path d="M354.698,265.252h74.024c5.11,0,9.253-4.142,9.253-9.253s-4.143-9.253-9.253-9.253h-74.024
				c-5.11,0-9.253,4.142-9.253,9.253S349.588,265.252,354.698,265.252z"/>
			<path d="M354.698,314.601h74.024c5.11,0,9.253-4.142,9.253-9.253c0-5.111-4.143-9.253-9.253-9.253h-74.024
				c-5.11,0-9.253,4.142-9.253,9.253C345.445,310.459,349.588,314.601,354.698,314.601z"/>
			<path d="M354.698,363.95h74.024c5.11,0,9.253-4.142,9.253-9.253s-4.143-9.253-9.253-9.253h-74.024
				c-5.11,0-9.253,4.142-9.253,9.253S349.588,363.95,354.698,363.95z"/>
			<path d="M354.698,413.299h74.024c5.11,0,9.253-4.142,9.253-9.253c0-5.111-4.143-9.253-9.253-9.253h-74.024
				c-5.11,0-9.253,4.142-9.253,9.253C345.445,409.158,349.588,413.299,354.698,413.299z"/>
			<path d="M89.447,80.192c5.11,0,9.253-4.142,9.253-9.253V58.602c0-5.111-4.143-9.253-9.253-9.253s-9.253,4.142-9.253,9.253v12.337
				C80.194,76.051,84.337,80.192,89.447,80.192z"/>
			<path d="M126.458,80.192c5.11,0,9.253-4.142,9.253-9.253V58.602c0-5.111-4.143-9.253-9.253-9.253
				c-5.11,0-9.253,4.142-9.253,9.253v12.337C117.206,76.051,121.348,80.192,126.458,80.192z"/>
			<path d="M163.47,80.192c5.11,0,9.253-4.142,9.253-9.253V58.602c0-5.111-4.143-9.253-9.253-9.253s-9.253,4.142-9.253,9.253v12.337
				C154.217,76.051,158.36,80.192,163.47,80.192z"/>
			<path d="M200.482,80.192c5.11,0,9.253-4.142,9.253-9.253V58.602c0-5.111-4.143-9.253-9.253-9.253
				c-5.11,0-9.253,4.142-9.253,9.253v12.337C191.229,76.051,195.372,80.192,200.482,80.192z"/>
			<path d="M237.494,80.192c5.11,0,9.253-4.142,9.253-9.253V58.602c0-5.111-4.143-9.253-9.253-9.253s-9.253,4.142-9.253,9.253
				v12.337C228.241,76.051,232.384,80.192,237.494,80.192z"/>
			<path d="M274.506,80.192c5.11,0,9.253-4.142,9.253-9.253V58.602c0-5.111-4.143-9.253-9.253-9.253s-9.253,4.142-9.253,9.253
				v12.337C265.253,76.051,269.396,80.192,274.506,80.192z"/>
			<path d="M89.447,141.879c5.11,0,9.253-4.142,9.253-9.253v-12.337c0-5.111-4.143-9.253-9.253-9.253s-9.253,4.142-9.253,9.253
				v12.337C80.194,137.737,84.337,141.879,89.447,141.879z"/>
			<path d="M126.458,141.879c5.11,0,9.253-4.142,9.253-9.253v-12.337c0-5.111-4.143-9.253-9.253-9.253
				c-5.11,0-9.253,4.142-9.253,9.253v12.337C117.206,137.737,121.348,141.879,126.458,141.879z"/>
			<path d="M163.47,141.879c5.11,0,9.253-4.142,9.253-9.253v-12.337c0-5.111-4.143-9.253-9.253-9.253s-9.253,4.142-9.253,9.253
				v12.337C154.217,137.737,158.36,141.879,163.47,141.879z"/>
			<path d="M200.482,141.879c5.11,0,9.253-4.142,9.253-9.253v-12.337c0-5.111-4.143-9.253-9.253-9.253
				c-5.11,0-9.253,4.142-9.253,9.253v12.337C191.229,137.737,195.372,141.879,200.482,141.879z"/>
			<path d="M237.494,141.879c5.11,0,9.253-4.142,9.253-9.253v-12.337c0-5.111-4.143-9.253-9.253-9.253s-9.253,4.142-9.253,9.253
				v12.337C228.241,137.737,232.384,141.879,237.494,141.879z"/>
			<path d="M274.506,141.879c5.11,0,9.253-4.142,9.253-9.253v-12.337c0-5.111-4.143-9.253-9.253-9.253s-9.253,4.142-9.253,9.253
				v12.337C265.253,137.737,269.396,141.879,274.506,141.879z"/>
			<path d="M89.447,203.565c5.11,0,9.253-4.142,9.253-9.253v-12.337c0-5.111-4.143-9.253-9.253-9.253s-9.253,4.142-9.253,9.253
				v12.337C80.194,199.424,84.337,203.565,89.447,203.565z"/>
			<path d="M126.458,203.565c5.11,0,9.253-4.142,9.253-9.253v-12.337c0-5.111-4.143-9.253-9.253-9.253
				c-5.11,0-9.253,4.142-9.253,9.253v12.337C117.206,199.424,121.348,203.565,126.458,203.565z"/>
			<path d="M163.47,203.565c5.11,0,9.253-4.142,9.253-9.253v-12.337c0-5.111-4.143-9.253-9.253-9.253s-9.253,4.142-9.253,9.253
				v12.337C154.217,199.424,158.36,203.565,163.47,203.565z"/>
			<path d="M200.482,203.565c5.11,0,9.253-4.142,9.253-9.253v-12.337c0-5.111-4.143-9.253-9.253-9.253
				c-5.11,0-9.253,4.142-9.253,9.253v12.337C191.229,199.424,195.372,203.565,200.482,203.565z"/>
			<path d="M237.494,203.565c5.11,0,9.253-4.142,9.253-9.253v-12.337c0-5.111-4.143-9.253-9.253-9.253s-9.253,4.142-9.253,9.253
				v12.337C228.241,199.424,232.384,203.565,237.494,203.565z"/>
			<path d="M274.506,203.565c5.11,0,9.253-4.142,9.253-9.253v-12.337c0-5.111-4.143-9.253-9.253-9.253s-9.253,4.142-9.253,9.253
				v12.337C265.253,199.424,269.396,203.565,274.506,203.565z"/>
			<path d="M89.447,265.252c5.11,0,9.253-4.142,9.253-9.253v-12.337c0-5.111-4.143-9.253-9.253-9.253s-9.253,4.142-9.253,9.253
				v12.337C80.194,261.11,84.337,265.252,89.447,265.252z"/>
			<path d="M126.458,265.252c5.11,0,9.253-4.142,9.253-9.253v-12.337c0-5.111-4.143-9.253-9.253-9.253
				c-5.11,0-9.253,4.142-9.253,9.253v12.337C117.206,261.11,121.348,265.252,126.458,265.252z"/>
			<path d="M163.47,265.252c5.11,0,9.253-4.142,9.253-9.253v-12.337c0-5.111-4.143-9.253-9.253-9.253s-9.253,4.142-9.253,9.253
				v12.337C154.217,261.11,158.36,265.252,163.47,265.252z"/>
			<path d="M200.482,265.252c5.11,0,9.253-4.142,9.253-9.253v-12.337c0-5.111-4.143-9.253-9.253-9.253
				c-5.11,0-9.253,4.142-9.253,9.253v12.337C191.229,261.11,195.372,265.252,200.482,265.252z"/>
			<path d="M237.494,265.252c5.11,0,9.253-4.142,9.253-9.253v-12.337c0-5.111-4.143-9.253-9.253-9.253s-9.253,4.142-9.253,9.253
				v12.337C228.241,261.11,232.384,265.252,237.494,265.252z"/>
			<path d="M274.506,265.252c5.11,0,9.253-4.142,9.253-9.253v-12.337c0-5.111-4.143-9.253-9.253-9.253s-9.253,4.142-9.253,9.253
				v12.337C265.253,261.11,269.396,265.252,274.506,265.252z"/>
			<path d="M89.447,326.938c5.11,0,9.253-4.142,9.253-9.253v-12.337c0-5.111-4.143-9.253-9.253-9.253s-9.253,4.142-9.253,9.253
				v12.337C80.194,322.797,84.337,326.938,89.447,326.938z"/>
			<path d="M126.458,326.938c5.11,0,9.253-4.142,9.253-9.253v-12.337c0-5.111-4.143-9.253-9.253-9.253
				c-5.11,0-9.253,4.142-9.253,9.253v12.337C117.206,322.797,121.348,326.938,126.458,326.938z"/>
			<path d="M163.47,326.938c5.11,0,9.253-4.142,9.253-9.253v-12.337c0-5.111-4.143-9.253-9.253-9.253s-9.253,4.142-9.253,9.253
				v12.337C154.217,322.797,158.36,326.938,163.47,326.938z"/>
			<path d="M200.482,326.938c5.11,0,9.253-4.142,9.253-9.253v-12.337c0-5.111-4.143-9.253-9.253-9.253
				c-5.11,0-9.253,4.142-9.253,9.253v12.337C191.229,322.797,195.372,326.938,200.482,326.938z"/>
			<path d="M237.494,326.938c5.11,0,9.253-4.142,9.253-9.253v-12.337c0-5.111-4.143-9.253-9.253-9.253s-9.253,4.142-9.253,9.253
				v12.337C228.241,322.797,232.384,326.938,237.494,326.938z"/>
			<path d="M274.506,326.938c5.11,0,9.253-4.142,9.253-9.253v-12.337c0-5.111-4.143-9.253-9.253-9.253s-9.253,4.142-9.253,9.253
				v12.337C265.253,322.797,269.396,326.938,274.506,326.938z"/>
			<path d="M89.447,388.625c5.11,0,9.253-4.142,9.253-9.253v-12.337c0-5.111-4.143-9.253-9.253-9.253s-9.253,4.142-9.253,9.253
				v12.337C80.194,384.483,84.337,388.625,89.447,388.625z"/>
			<path d="M126.458,388.625c5.11,0,9.253-4.142,9.253-9.253v-12.337c0-5.111-4.143-9.253-9.253-9.253
				c-5.11,0-9.253,4.142-9.253,9.253v12.337C117.206,384.483,121.348,388.625,126.458,388.625z"/>
			<path d="M163.47,388.625c5.11,0,9.253-4.142,9.253-9.253v-12.337c0-5.111-4.143-9.253-9.253-9.253s-9.253,4.142-9.253,9.253
				v12.337C154.217,384.483,158.36,388.625,163.47,388.625z"/>
			<path d="M200.482,388.625c5.11,0,9.253-4.142,9.253-9.253v-12.337c0-5.111-4.143-9.253-9.253-9.253
				c-5.11,0-9.253,4.142-9.253,9.253v12.337C191.229,384.483,195.372,388.625,200.482,388.625z"/>
			<path d="M237.494,388.625c5.11,0,9.253-4.142,9.253-9.253v-12.337c0-5.111-4.143-9.253-9.253-9.253s-9.253,4.142-9.253,9.253
				v12.337C228.241,384.483,232.384,388.625,237.494,388.625z"/>
			<path d="M274.506,388.625c5.11,0,9.253-4.142,9.253-9.253v-12.337c0-5.111-4.143-9.253-9.253-9.253s-9.253,4.142-9.253,9.253
				v12.337C265.253,384.483,269.396,388.625,274.506,388.625z"/>
		</g>
	</g>
</g>
<g>
</g>
<g>
</g>
<g>
</g>
<g>
</g>
<g>
</g>
<g>
</g>
<g>
</g>
<g>
</g>
<g>
</g>
<g>
</g>
<g>
</g>
<g>
</g>
<g>
</g>
<g>
</g>
<g>
</g>
</svg>
