<svg xmlns="http://www.w3.org/2000/svg" xmlns:xlink="http://www.w3.org/1999/xlink" viewBox="0 0 45.2 42.82"><defs><style>.cls-1{fill:url(#linear-gradient);}</style><linearGradient id="linear-gradient" x1="34.6" y1="2.92" x2="13.18" y2="40.02" gradientUnits="userSpaceOnUse"><stop offset="0.01" stop-color="#39bcea"/><stop offset="1" stop-color="#2892ce"/></linearGradient></defs><title>Asset 68</title><g id="Layer_2" data-name="Layer 2"><g id="Layer_1-2" data-name="Layer 1"><path class="cls-1" d="M38.93,6.27A21.28,21.28,0,0,0,23.79,0a1.2,1.2,0,0,0,0,2.39,19,19,0,1,1-19,19v-.36l.34.34a1.23,1.23,0,0,0,1.69,0,1.21,1.21,0,0,0,0-1.69L4.43,17.31a1.22,1.22,0,0,0-1.7,0L.35,19.7A1.2,1.2,0,1,0,2,21.39l.34-.34v.36A21.41,21.41,0,0,0,38.93,36.55a21.41,21.41,0,0,0,0-30.28Z"/><path class="cls-1" d="M23.79,12.77a1.2,1.2,0,0,0,0,2.4,6.25,6.25,0,1,1-6.24,6.24v-.26l.24.23a1.21,1.21,0,0,0,1.69,0,1.19,1.19,0,0,0,0-1.69L17.2,17.41a1.24,1.24,0,0,0-1.7,0l-2.28,2.28a1.21,1.21,0,0,0,0,1.69,1.19,1.19,0,0,0,1.69,0l.24-.23v.26a8.64,8.64,0,1,0,8.64-8.64Z"/></g></g></svg>