<svg xmlns="http://www.w3.org/2000/svg" xmlns:xlink="http://www.w3.org/1999/xlink" viewBox="0 0 30.91 44.72"><defs><style>.cls-1{fill:url(#linear-gradient);}</style><linearGradient id="linear-gradient" x1="28.31" y1="0.09" x2="2.59" y2="44.63" gradientUnits="userSpaceOnUse"><stop offset="0.01" stop-color="#39bcea"/><stop offset="1" stop-color="#2892ce"/></linearGradient></defs><title>Asset 66</title><g id="Layer_2" data-name="Layer 2"><g id="Layer_1-2" data-name="Layer 1"><path class="cls-1" d="M18.17,31.38H12.62a.68.68,0,0,0-.68.67v7.31a.68.68,0,0,0,.68.67h5.55a.67.67,0,0,0,.68-.67V32.05a.67.67,0,0,0-.68-.67Zm-.68,7.3H13.3v-6h4.19Z"/><path class="cls-1" d="M18.17,40.24H12.62a.88.88,0,0,1-.89-.88V32.05a.89.89,0,0,1,.89-.89h5.55a.89.89,0,0,1,.89.89v7.31A.88.88,0,0,1,18.17,40.24Zm-5.55-8.66a.48.48,0,0,0-.47.47v7.31a.47.47,0,0,0,.47.46h5.55a.47.47,0,0,0,.47-.46V32.05a.48.48,0,0,0-.47-.47Zm5.08,7.31H13.09V32.52H17.7Zm-4.19-.42h3.77V32.94H13.51Z"/><path class="cls-1" d="M18.17,21.36H12.62a.68.68,0,0,0-.68.68v7.3a.69.69,0,0,0,.68.68h5.55a.68.68,0,0,0,.68-.68V22a.67.67,0,0,0-.68-.68Zm-.68,7.3H13.3V22.72h4.19Z"/><path class="cls-1" d="M18.17,30.23H12.62a.89.89,0,0,1-.89-.89V22a.89.89,0,0,1,.89-.89h5.55a.89.89,0,0,1,.89.89v7.3A.89.89,0,0,1,18.17,30.23Zm-5.55-8.66a.47.47,0,0,0-.47.47v7.3a.48.48,0,0,0,.47.47h5.55a.48.48,0,0,0,.47-.47V22a.47.47,0,0,0-.47-.47Zm5.08,7.3H13.09V22.51H17.7Zm-4.19-.42h3.77V22.93H13.51Z"/><path class="cls-1" d="M9.9,31.38H4.35a.68.68,0,0,0-.68.67v7.31a.68.68,0,0,0,.68.67H9.9a.67.67,0,0,0,.68-.67V32.05a.67.67,0,0,0-.68-.67Zm-.68,7.3H5v-6H9.22Z"/><path class="cls-1" d="M9.9,40.24H4.35a.88.88,0,0,1-.89-.88V32.05a.89.89,0,0,1,.89-.89H9.9a.89.89,0,0,1,.89.89v7.31A.88.88,0,0,1,9.9,40.24ZM4.35,31.58a.48.48,0,0,0-.47.47v7.31a.47.47,0,0,0,.47.46H9.9a.47.47,0,0,0,.47-.46V32.05a.48.48,0,0,0-.47-.47Zm5.08,7.31H4.82V32.52H9.43Zm-4.19-.42H9V32.94H5.24Z"/><path class="cls-1" d="M9.9,21.36H4.35a.68.68,0,0,0-.68.68v7.3a.69.69,0,0,0,.68.68H9.9a.68.68,0,0,0,.68-.68V22a.67.67,0,0,0-.68-.68Zm-.68,7.3H5V22.72H9.22Z"/><path class="cls-1" d="M9.9,30.23H4.35a.89.89,0,0,1-.89-.89V22a.89.89,0,0,1,.89-.89H9.9a.89.89,0,0,1,.89.89v7.3A.89.89,0,0,1,9.9,30.23ZM4.35,21.57a.47.47,0,0,0-.47.47v7.3a.48.48,0,0,0,.47.47H9.9a.48.48,0,0,0,.47-.47V22a.47.47,0,0,0-.47-.47Zm5.08,7.3H4.82V22.51H9.43Zm-4.19-.42H9V22.93H5.24Z"/><path class="cls-1" d="M27.16.21H3.74A3.54,3.54,0,0,0,.21,3.74V41a3.54,3.54,0,0,0,3.53,3.53H27.16A3.54,3.54,0,0,0,30.7,41V3.74A3.54,3.54,0,0,0,27.16.21ZM29.28,41a2.12,2.12,0,0,1-2.12,2.12H3.74A2.13,2.13,0,0,1,1.62,41V3.74A2.13,2.13,0,0,1,3.74,1.62H27.16a2.13,2.13,0,0,1,2.12,2.12Z"/><path class="cls-1" d="M27.16,44.72H3.74A3.75,3.75,0,0,1,0,41V3.74A3.75,3.75,0,0,1,3.74,0H27.16a3.75,3.75,0,0,1,3.75,3.74V41A3.75,3.75,0,0,1,27.16,44.72ZM3.74.42A3.32,3.32,0,0,0,.42,3.74V41A3.32,3.32,0,0,0,3.74,44.3H27.16A3.33,3.33,0,0,0,30.49,41V3.74A3.33,3.33,0,0,0,27.16.42ZM27.16,43.31H3.74A2.34,2.34,0,0,1,1.41,41V3.74A2.34,2.34,0,0,1,3.74,1.41H27.16a2.33,2.33,0,0,1,2.33,2.33V41A2.33,2.33,0,0,1,27.16,43.31ZM3.74,1.83A1.92,1.92,0,0,0,1.83,3.74V41a1.92,1.92,0,0,0,1.91,1.91H27.16A1.92,1.92,0,0,0,29.07,41V3.74a1.92,1.92,0,0,0-1.91-1.91Z"/><path class="cls-1" d="M26.55,21.36H21a.68.68,0,0,0-.68.68V39.36A.68.68,0,0,0,21,40h5.55a.67.67,0,0,0,.68-.67V22A.67.67,0,0,0,26.55,21.36Zm-.68,17.32H21.68v-16h4.19Z"/><path class="cls-1" d="M26.55,40.25H21a.89.89,0,0,1-.89-.89V22a.89.89,0,0,1,.89-.89h5.55a.89.89,0,0,1,.89.89V39.36A.89.89,0,0,1,26.55,40.25ZM21,21.57a.47.47,0,0,0-.47.47V39.36a.48.48,0,0,0,.47.47h5.55a.48.48,0,0,0,.47-.47V22a.47.47,0,0,0-.47-.47Zm5.08,17.32H21.47V22.51h4.61Zm-4.19-.42h3.77V22.93H21.89Z"/><path class="cls-1" d="M26.55,4.69H4.35a.68.68,0,0,0-.68.68v11.1a.69.69,0,0,0,.68.68h22.2a.68.68,0,0,0,.68-.68V5.37A.67.67,0,0,0,26.55,4.69Zm-.68,11.1H5V6.05H25.87Z"/><path class="cls-1" d="M26.55,17.36H4.35a.89.89,0,0,1-.89-.89V5.37a.89.89,0,0,1,.89-.89h22.2a.89.89,0,0,1,.89.89v11.1A.89.89,0,0,1,26.55,17.36ZM4.35,4.9a.47.47,0,0,0-.47.47v11.1a.47.47,0,0,0,.47.47h22.2a.47.47,0,0,0,.47-.47V5.37a.47.47,0,0,0-.47-.47ZM26.08,16H4.82V5.84H26.08ZM5.24,15.58H25.66V6.26H5.24Z"/></g></g></svg>