<svg xmlns="http://www.w3.org/2000/svg" xmlns:xlink="http://www.w3.org/1999/xlink" viewBox="0 0 34.05 44.72"><defs><style>.cls-1{fill:url(#linear-gradient);}</style><linearGradient id="linear-gradient" x1="29.04" y1="4.44" x2="6.3" y2="43.84" gradientUnits="userSpaceOnUse"><stop offset="0.01" stop-color="#39bcea"/><stop offset="1" stop-color="#2892ce"/></linearGradient></defs><title>Asset 65</title><g id="Layer_2" data-name="Layer 2"><g id="Layer_1-2" data-name="Layer 1"><path class="cls-1" d="M8.21,24.77a.94.94,0,0,1-.74-.37,12.06,12.06,0,0,1,15-18.15,1,1,0,0,1,.47.55.88.88,0,0,1-.06.71.94.94,0,0,1-1.26.42A10.17,10.17,0,0,0,9,23.25a.94.94,0,0,1-.17,1.32A.91.91,0,0,1,8.21,24.77Z"/><path class="cls-1" d="M26.62,11.42a.66.66,0,0,0-.29.88,10.46,10.46,0,0,1-15.75,13,.65.65,0,0,0-.92.11.64.64,0,0,0,.12.91A11.77,11.77,0,0,0,27.5,11.71a.66.66,0,0,0-.88-.29Z"/><path class="cls-1" d="M17,29.06A11.89,11.89,0,0,1,9.6,26.53a.91.91,0,0,1-.36-.62.95.95,0,0,1,1.52-.86A10.17,10.17,0,0,0,26.07,12.43a1,1,0,0,1,.42-1.27h0a1,1,0,0,1,1.27.42A12.05,12.05,0,0,1,17,29.06Z"/><path class="cls-1" d="M25.33,10.6a.93.93,0,0,1-.71-.32l-.44-.46c-.15-.15-.3-.3-.46-.44a.93.93,0,0,1-.32-.65A.95.95,0,0,1,25,8l.55.52c.17.17.35.36.51.55A1,1,0,0,1,26,10.37.93.93,0,0,1,25.33,10.6Z"/><path class="cls-1" d="M33.41,18.26a2.38,2.38,0,0,0,0-2.47l-.92-1.5a1,1,0,0,1-.13-.66l.28-1.73a2.37,2.37,0,0,0-.95-2.29l-1.42-1A1,1,0,0,1,29.9,8l-.42-1.71a2.35,2.35,0,0,0-1.74-1.74L26,4.15a1,1,0,0,1-.56-.37l-1-1.42a2.37,2.37,0,0,0-2.29-.95l-1.73.27a1,1,0,0,1-.66-.13L18.26.64a2.34,2.34,0,0,0-2.47,0l-1.5.91a1,1,0,0,1-.66.13L11.9,1.41a2.37,2.37,0,0,0-2.29,1l-1,1.42A1,1,0,0,1,8,4.15l-1.71.42A2.34,2.34,0,0,0,4.57,6.31L4.15,8a1,1,0,0,1-.37.56l-1.42,1a2.37,2.37,0,0,0-.95,2.29l.27,1.73a1,1,0,0,1-.13.66l-.91,1.5a2.34,2.34,0,0,0,0,2.47l.91,1.5a1,1,0,0,1,.13.66l-.27,1.73a2.37,2.37,0,0,0,1,2.29l1.42,1a1,1,0,0,1,.37.56l.42,1.71a2.35,2.35,0,0,0,1.74,1.74l.71.18L2.2,40.42a.69.69,0,0,0,.72,1l3.88-.46L9,44.13a.72.72,0,0,0,.58.3h.06a.7.7,0,0,0,.57-.41l4.93-11,.62.38a2.35,2.35,0,0,0,2.47,0L18.9,33l4.94,11a.7.7,0,0,0,.57.41h.06a.68.68,0,0,0,.57-.3l2.24-3.2,3.88.46a.7.7,0,0,0,.64-.28.69.69,0,0,0,.08-.69L27.05,29.65l.69-.17a2.37,2.37,0,0,0,1.74-1.74L29.9,26a1,1,0,0,1,.37-.56l1.42-1a2.37,2.37,0,0,0,.95-2.29l-.28-1.73a1,1,0,0,1,.13-.66ZM9.47,42.33,7.7,39.79a.7.7,0,0,0-.65-.29L4,39.86l4.4-9.8a5.29,5.29,0,0,0,2.1,1.88,5.45,5.45,0,0,0,3.47.43Zm20.64-2.47L27,39.5a.68.68,0,0,0-.65.29L24.6,42.33l-4.46-10a5,5,0,0,0,3.69-.42A4.83,4.83,0,0,0,25.7,30Zm2.11-22.33L31.31,19A2.39,2.39,0,0,0,31,20.64l.27,1.73a1,1,0,0,1-.39.94l-1.42,1a2.49,2.49,0,0,0-.91,1.36l-.41,1.71a1,1,0,0,1-.72.72l-1.71.41a2.45,2.45,0,0,0-1.36.91l-1,1.42a1,1,0,0,1-.94.39L20.64,31a2.39,2.39,0,0,0-1.61.32l-1.5.91a1,1,0,0,1-1,0L15,31.31A2.34,2.34,0,0,0,13.78,31a2.31,2.31,0,0,0-.37,0l-1.73.27a1,1,0,0,1-.94-.39l-1-1.42a2.42,2.42,0,0,0-1.36-.91l-1.7-.41a1,1,0,0,1-.72-.72L5.5,25.7a2.39,2.39,0,0,0-.9-1.36l-1.42-1a1,1,0,0,1-.39-.94l.27-1.73A2.39,2.39,0,0,0,2.74,19l-.91-1.5a.93.93,0,0,1,0-1L2.74,15a2.35,2.35,0,0,0,.32-1.6l-.27-1.73a1,1,0,0,1,.39-.94l1.42-1a2.43,2.43,0,0,0,.91-1.35l.41-1.71a1,1,0,0,1,.72-.72L8.35,5.5A2.36,2.36,0,0,0,9.7,4.6l1-1.42a1,1,0,0,1,.94-.39l1.73.27A2.35,2.35,0,0,0,15,2.74l1.51-.91a.93.93,0,0,1,1,0l1.5.91a2.39,2.39,0,0,0,1.61.32l1.73-.27a1,1,0,0,1,.94.39l1,1.42a2.49,2.49,0,0,0,1.36.91l1.71.41a1,1,0,0,1,.72.72l.41,1.71a2.43,2.43,0,0,0,.91,1.35l1.42,1a1,1,0,0,1,.39.94L31,13.41a2.35,2.35,0,0,0,.32,1.6l.91,1.51A1,1,0,0,1,32.22,17.53Z"/><path class="cls-1" d="M24.47,44.72h-.09a1,1,0,0,1-.81-.58l-4.8-10.7-.36.22a2.7,2.7,0,0,1-2.77,0l-.34-.21L10.5,44.14a1,1,0,0,1-.8.58,1,1,0,0,1-.9-.42L6.66,41.24,3,41.68a1,1,0,0,1-1-1.38L6.62,29.86l-.38-.09a2.67,2.67,0,0,1-2-2L3.87,26.1a.72.72,0,0,0-.26-.4l-1.42-1a2.66,2.66,0,0,1-1.07-2.56l.28-1.74a.74.74,0,0,0-.09-.46l-.92-1.5a2.65,2.65,0,0,1,0-2.77l.92-1.5a.77.77,0,0,0,.09-.47l-.27-1.73A2.64,2.64,0,0,1,2.19,9.38l1.42-1A.67.67,0,0,0,3.87,8l.41-1.71a2.67,2.67,0,0,1,2-2L8,3.87a.67.67,0,0,0,.39-.26l1-1.42a2.64,2.64,0,0,1,2.56-1.06l1.73.27a.75.75,0,0,0,.47-.09l1.5-.92a2.65,2.65,0,0,1,2.77,0l1.5.92a.74.74,0,0,0,.46.09l1.74-.27a2.64,2.64,0,0,1,2.56,1.06l1,1.42a.72.72,0,0,0,.4.26l1.71.41a2.67,2.67,0,0,1,2,2L30.18,8a.67.67,0,0,0,.26.39l1.42,1a2.64,2.64,0,0,1,1.06,2.56l-.27,1.73a.77.77,0,0,0,.09.47l.92,1.5a2.65,2.65,0,0,1,0,2.77h0l-.92,1.5a.74.74,0,0,0-.09.46l.27,1.74a2.64,2.64,0,0,1-1.06,2.56l-1.42,1a.72.72,0,0,0-.26.4l-.42,1.71a2.65,2.65,0,0,1-2,2l-.35.08L32.14,40.3a1,1,0,0,1-.1,1,1,1,0,0,1-.91.4l-3.71-.44L25.28,44.3A1,1,0,0,1,24.47,44.72ZM6.94,40.62,9.27,44a.41.41,0,0,0,.34.17A.44.44,0,0,0,10,43.9L15,32.61l.9.55a2.11,2.11,0,0,0,2.17,0L19,32.6,24.1,43.9a.43.43,0,0,0,.33.24A.43.43,0,0,0,24.8,44l2.34-3.35,4.05.48a.4.4,0,0,0,.42-.57l-5-11.08,1-.25a2.06,2.06,0,0,0,1.53-1.53L29.61,26a1.25,1.25,0,0,1,.49-.72l1.42-1a2.08,2.08,0,0,0,.83-2l-.27-1.73a1.23,1.23,0,0,1,.17-.86l.91-1.5a2.07,2.07,0,0,0,0-2.17l-.91-1.5a1.24,1.24,0,0,1-.17-.86l.27-1.73a2.08,2.08,0,0,0-.83-2l-1.42-1a1.25,1.25,0,0,1-.49-.72L29.2,6.38a2.06,2.06,0,0,0-1.53-1.53L26,4.44A1.36,1.36,0,0,1,25.23,4l-1-1.42a2.08,2.08,0,0,0-2-.83L20.47,2a1.23,1.23,0,0,1-.86-.17L18.11.89a2.07,2.07,0,0,0-2.17,0l-1.5.91a1.23,1.23,0,0,1-.86.17L11.85,1.7a2.08,2.08,0,0,0-2,.83L8.81,4a1.3,1.3,0,0,1-.72.49l-1.71.41A2.06,2.06,0,0,0,4.85,6.38L4.44,8.09A1.3,1.3,0,0,1,4,8.81l-1.42,1a2.08,2.08,0,0,0-.83,2L2,13.58a1.24,1.24,0,0,1-.17.86l-.91,1.5a2.07,2.07,0,0,0,0,2.17l.91,1.5a1.23,1.23,0,0,1,.17.86L1.7,22.2a2.08,2.08,0,0,0,.83,2l1.42,1a1.29,1.29,0,0,1,.48.73l.42,1.71A2.06,2.06,0,0,0,6.38,29.2l1,.26-5,11.07a.43.43,0,0,0,0,.41.38.38,0,0,0,.37.16Zm17.61,2.3-4.93-11,.59.16a4.72,4.72,0,0,0,3.47-.39,4.58,4.58,0,0,0,1.77-1.79l.28-.51,4.85,10.82L27,39.78a.45.45,0,0,0-.39.17ZM20.63,32.76l4,9,1.48-2.12a1,1,0,0,1,.92-.41l2.57.3-4-8.85A5,5,0,0,1,24,32.2,5.21,5.21,0,0,1,20.63,32.76ZM9.53,42.92,7.46,40a.42.42,0,0,0-.38-.17l-3.58.43L8.32,29.45l.29.45a5,5,0,0,0,5.27,2.18l.56-.12ZM7.13,39.2a1,1,0,0,1,.81.42l1.48,2.12,4-9a5.57,5.57,0,0,1-3.11-.54,5.48,5.48,0,0,1-1.92-1.56l-4,8.87L7,39.21ZM17,32.66a1.35,1.35,0,0,1-.66-.19l-1.5-.92a2.06,2.06,0,0,0-1.4-.27l-1.74.27A1.26,1.26,0,0,1,10.5,31l-1-1.42a2.07,2.07,0,0,0-1.19-.79l-1.71-.42a1.26,1.26,0,0,1-.93-.93l-.42-1.71a2,2,0,0,0-.8-1.19L3,23.55a1.25,1.25,0,0,1-.51-1.23l.27-1.73a2,2,0,0,0-.28-1.4l-.91-1.51a1.26,1.26,0,0,1,0-1.32l.91-1.5a2,2,0,0,0,.28-1.4L2.5,11.72A1.24,1.24,0,0,1,3,10.5l1.42-1a2.07,2.07,0,0,0,.79-1.19l.42-1.71a1.26,1.26,0,0,1,.93-.93l1.71-.42a2,2,0,0,0,1.19-.8L10.5,3a1.26,1.26,0,0,1,1.22-.51l1.74.27a2,2,0,0,0,1.4-.28l1.5-.91a1.26,1.26,0,0,1,1.32,0l1.51.91a2,2,0,0,0,1.4.28l1.74-.27A1.26,1.26,0,0,1,23.55,3l1,1.42a2.07,2.07,0,0,0,1.19.79l1.71.42a1.26,1.26,0,0,1,.93.93l.42,1.71a2.07,2.07,0,0,0,.79,1.19l1.42,1a1.26,1.26,0,0,1,.51,1.22l-.27,1.74a2,2,0,0,0,.28,1.4l.91,1.5a1.26,1.26,0,0,1,0,1.32l-.91,1.51a2,2,0,0,0-.28,1.4l.27,1.73A1.27,1.27,0,0,1,31,23.55l-1.42,1a2.07,2.07,0,0,0-.79,1.19l-.42,1.71a1.26,1.26,0,0,1-.93.93l-1.71.42a2.07,2.07,0,0,0-1.19.79l-1,1.42a1.27,1.27,0,0,1-1.23.51l-1.73-.27a2.07,2.07,0,0,0-1.4.27l-1.51.92A1.3,1.3,0,0,1,17,32.66Zm-3.24-2a2.63,2.63,0,0,1,1.39.39l1.5.91a.65.65,0,0,0,.71,0l1.5-.91a2.71,2.71,0,0,1,1.8-.36l1.73.28a.69.69,0,0,0,.67-.28l1-1.42a2.66,2.66,0,0,1,1.52-1l1.71-.41a.7.7,0,0,0,.51-.51l.41-1.7a2.65,2.65,0,0,1,1-1.53l1.42-1a.69.69,0,0,0,.28-.67l-.28-1.73a2.65,2.65,0,0,1,.36-1.8l.91-1.5a.65.65,0,0,0,0-.71l-.91-1.51a2.67,2.67,0,0,1-.36-1.79L31,11.63A.69.69,0,0,0,30.7,11l-1.42-1a2.65,2.65,0,0,1-1-1.53l-.41-1.7a.7.7,0,0,0-.51-.51l-1.7-.41a2.65,2.65,0,0,1-1.53-1l-1-1.42a.69.69,0,0,0-.66-.28l-1.74.28A2.71,2.71,0,0,1,18.88,3l-1.5-.92a.7.7,0,0,0-.71,0L15.17,3a2.71,2.71,0,0,1-1.8.36l-1.74-.28a.69.69,0,0,0-.66.28l-1,1.42a2.65,2.65,0,0,1-1.53,1l-1.7.41a.68.68,0,0,0-.51.51l-.41,1.7a2.65,2.65,0,0,1-1,1.53L3.35,11a.69.69,0,0,0-.28.66l.28,1.74A2.71,2.71,0,0,1,3,15.17l-.92,1.5a.7.7,0,0,0,0,.71L3,18.88a2.71,2.71,0,0,1,.36,1.8l-.28,1.73a.69.69,0,0,0,.28.67l1.42,1a2.65,2.65,0,0,1,1,1.53l.41,1.7a.68.68,0,0,0,.51.51l1.7.41a2.65,2.65,0,0,1,1.53,1l1,1.42a.68.68,0,0,0,.66.28l1.74-.28A2.73,2.73,0,0,1,13.78,30.67Z"/><path class="cls-1" d="M15.15,15.25a.59.59,0,0,0,.44-.32L17,11.82l1.44,3.11a.57.57,0,0,0,.43.32l3.4.4L19.78,18a.59.59,0,0,0-.17.52l.67,3.35-3-1.67A.6.6,0,0,0,17,20.1a.68.68,0,0,0-.27.07l-3,1.67.66-3.35a.56.56,0,0,0-.16-.52l-2.52-2.32,3.4-.4ZM10.83,16.3l2.46,2.27-.65,3.29a1,1,0,0,0,1,1.19.94.94,0,0,0,.48-.13L17,21.29l2.92,1.63A1,1,0,0,0,21,22.86a1,1,0,0,0,.39-1l-.65-3.29,2.45-2.27a1,1,0,0,0,.28-1,1,1,0,0,0-.84-.68l-3.32-.39-1.4-3a1,1,0,0,0-1.81,0l-1.4,3-3.33.39a1,1,0,0,0-.56,1.72Z"/><path class="cls-1" d="M20.43,23.34a1.22,1.22,0,0,1-.63-.17L17,21.62l-2.77,1.55a1.28,1.28,0,0,1-1.39-.08,1.29,1.29,0,0,1-.51-1.29L13,18.68l-2.33-2.16a1.29,1.29,0,0,1,.72-2.23l3.16-.37L15.85,11A1.28,1.28,0,0,1,17,10.28a1.26,1.26,0,0,1,1.17.75l1.34,2.89,3.16.37a1.29,1.29,0,0,1,.72,2.23l-2.34,2.16.62,3.12a1.29,1.29,0,0,1-1.26,1.54ZM17,10.86a.72.72,0,0,0-.64.41l-1.47,3.18-3.48.42a.71.71,0,0,0-.4,1.22l2.58,2.38-.69,3.44a.71.71,0,0,0,.28.71.7.7,0,0,0,.76.05L17,21l3.07,1.72a.7.7,0,0,0,.76-.05.69.69,0,0,0,.27-.71l-.68-3.44L23,16.09a.71.71,0,0,0-.4-1.22l-3.48-.42-1.47-3.18A.72.72,0,0,0,17,10.86Zm3.67,11.55-3.54-2a.23.23,0,0,0-.25,0l-3.54,2,.79-4a.24.24,0,0,0-.08-.24l-3-2.76,4-.47a.27.27,0,0,0,.21-.15L17,11.13l1.7,3.68a.27.27,0,0,0,.21.15l4,.47-3,2.76a.24.24,0,0,0-.08.24ZM17,19.81a.88.88,0,0,1,.42.11l2.43,1.36-.54-2.74a.84.84,0,0,1,.25-.78l2.06-1.9-2.78-.33a.84.84,0,0,1-.67-.48L17,12.51l-1.17,2.54a.83.83,0,0,1-.66.48l-2.78.33,2.05,1.9a.82.82,0,0,1,.26.78l-.55,2.74,2.44-1.36A.87.87,0,0,1,17,19.81Z"/></g></g></svg>