<svg xmlns="http://www.w3.org/2000/svg" viewBox="0 0 45.2 44.75"><defs><style>.cls-1{fill:url(#linear-gradient);}</style></defs><title>Asset 63</title><g id="Layer_2" data-name="Layer 2"><g id="Layer_1-2" data-name="Layer 1"><path class="cls-1" d="M45.07,13.92,37.64.53a1,1,0,0,0-.91-.5,1,1,0,0,0-.91.5L28.39,13.92a1,1,0,0,0,.9,1.54H44.17a1,1,0,0,0,.89-.51A1,1,0,0,0,45.07,13.92Zm-2.66-.53H31.06L36.73,3.17Z"/><path class="cls-1" d="M16.8.51A1,1,0,0,0,15.91,0H1a1.06,1.06,0,0,0-.9.51,1,1,0,0,0,0,1L7.57,14.93a1,1,0,0,0,1.81,0L16.82,1.54A1.05,1.05,0,0,0,16.8.51ZM14.15,2.07,8.47,12.29,2.8,2.07Z"/><path class="cls-1" d="M30.93,29.8a1,1,0,0,0-.89-.51H15.17a1.06,1.06,0,0,0-.9.51,1,1,0,0,0,0,1L21.7,44.22a1,1,0,0,0,1.81,0L31,30.83A1.05,1.05,0,0,0,30.93,29.8Zm-2.65,1.56L22.6,41.58,16.93,31.36Z"/><path class="cls-1" d="M31,39.16,23.55,25.78a1,1,0,0,0-.91-.51,1,1,0,0,0-.91.51L14.3,39.16a1,1,0,0,0,0,1,1,1,0,0,0,.89.51H30.08a1,1,0,0,0,.9-1.54Zm-2.66-.53H17l5.67-10.21Z"/><path class="cls-1" d="M33.89,17.2h-.25a.69.69,0,0,0-.69.7v1.65H12.26V17.88a.69.69,0,0,0-.68-.68h-.26a.7.7,0,0,0-.7.7v2a1.28,1.28,0,0,0,1.28,1.28h9.88v1.65a.7.7,0,0,0,.7.7h.24a.7.7,0,0,0,.7-.7V21.19H33.3a1.28,1.28,0,0,0,1.29-1.28v-2A.7.7,0,0,0,33.89,17.2Z"/><path class="cls-1" d="M25,6.69H23.64V5.33a.87.87,0,0,0-.86-.87h-.35a.86.86,0,0,0-.86.87V6.69H20.19a.87.87,0,0,0-.86.86v.34a.88.88,0,0,0,.88.88h1.36v1.35a.87.87,0,0,0,.87.88h.34a.87.87,0,0,0,.86-.86V8.77H25a.87.87,0,0,0,.86-.86V7.56A.87.87,0,0,0,25,6.69Z"/></g></g></svg>