<?xml version="1.0" encoding="iso-8859-1"?>
<!-- Generator: Adobe Illustrator 19.0.0, SVG Export Plug-In . SVG Version: 6.00 Build 0)  -->
<svg version="1.1" id="Layer_1" xmlns="http://www.w3.org/2000/svg" xmlns:xlink="http://www.w3.org/1999/xlink" x="0px" y="0px"
	 viewBox="0 0 512.002 512.002" style="enable-background:new 0 0 512.002 512.002;" xml:space="preserve">
<g>
	<g>
		<g>
			<path d="M460.787,110.671c-0.004-0.112-0.009-0.222-0.017-0.334c-0.024-0.347-0.064-0.689-0.128-1.023
				c-0.003-0.018-0.005-0.036-0.008-0.053c-0.076-0.381-0.182-0.75-0.307-1.111c-0.019-0.055-0.04-0.109-0.06-0.164
				c-0.272-0.741-0.642-1.432-1.098-2.059c-0.028-0.039-0.057-0.077-0.086-0.115c-0.26-0.346-0.541-0.675-0.85-0.977L355.967,2.569
				c-0.302-0.309-0.632-0.591-0.978-0.851c-0.038-0.029-0.076-0.058-0.115-0.086c-0.627-0.456-1.318-0.825-2.059-1.098
				c-0.055-0.02-0.109-0.041-0.164-0.06c-0.361-0.124-0.73-0.231-1.111-0.307c-0.017-0.003-0.034-0.004-0.051-0.008
				c-0.335-0.064-0.678-0.104-1.026-0.128c-0.111-0.008-0.221-0.013-0.332-0.017c-0.089-0.003-0.176-0.013-0.265-0.013H59.733
				c-4.719,0-8.533,3.814-8.533,8.533v494.933c0,4.719,3.814,8.533,8.533,8.533h392.533c4.719,0,8.533-3.814,8.533-8.533V110.935
				C460.8,110.846,460.789,110.759,460.787,110.671z M358.4,29.134l73.267,73.267H358.4V29.134z M68.267,494.935V17.068h273.067
				v93.867c0,4.719,3.814,8.533,8.533,8.533h93.867v375.467H68.267z"/>
			<path d="M273.067,247.468c0,4.719,3.814,8.533,8.533,8.533s8.533-3.814,8.533-8.533c0-15.879-10.893-29.256-25.6-33.054v-9.613
				c0-4.719-3.814-8.533-8.533-8.533s-8.533,3.814-8.533,8.533v9.613c-14.707,3.798-25.6,17.175-25.6,33.054
				s10.893,29.256,25.6,33.054v32.905c-5.093-2.956-8.533-8.456-8.533-14.758c0-4.719-3.814-8.533-8.533-8.533
				s-8.533,3.814-8.533,8.533c0,15.879,10.893,29.256,25.6,33.054v9.613c0,4.719,3.814,8.533,8.533,8.533s8.533-3.814,8.533-8.533
				v-9.613c14.707-3.798,25.6-17.175,25.6-33.054s-10.893-29.256-25.6-33.054V232.71
				C269.626,235.666,273.067,241.166,273.067,247.468z M238.933,247.468c0-6.302,3.44-11.802,8.533-14.758v29.517
				C242.374,259.271,238.933,253.77,238.933,247.468z M273.067,298.668c0,6.302-3.44,11.802-8.533,14.758V283.91
				C269.626,286.866,273.067,292.366,273.067,298.668z"/>
			<path d="M256,162.135c-61.167,0-110.933,49.766-110.933,110.933S194.833,384.002,256,384.002s110.933-49.766,110.933-110.933
				S317.167,162.135,256,162.135z M256,366.935c-51.755,0-93.867-42.112-93.867-93.867c0-51.755,42.112-93.867,93.867-93.867
				c51.755,0,93.867,42.112,93.867,93.867C349.867,324.823,307.755,366.935,256,366.935z"/>
		</g>
	</g>
</g>
<g>
</g>
<g>
</g>
<g>
</g>
<g>
</g>
<g>
</g>
<g>
</g>
<g>
</g>
<g>
</g>
<g>
</g>
<g>
</g>
<g>
</g>
<g>
</g>
<g>
</g>
<g>
</g>
<g>
</g>
</svg>
