<svg xmlns="http://www.w3.org/2000/svg" xmlns:xlink="http://www.w3.org/1999/xlink" viewBox="0 0 45.2 41.63"><defs><style>.cls-1{fill:url(#linear-gradient);}</style><linearGradient id="linear-gradient" y1="20.82" x2="45.2" y2="20.82" gradientUnits="userSpaceOnUse"><stop offset="0.01" stop-color="#39bcea"/><stop offset="1" stop-color="#2892ce"/></linearGradient></defs><title>Asset 64</title><g id="Layer_2" data-name="Layer 2"><g id="Layer_1-2" data-name="Layer 1"><path class="cls-1" d="M43.26,28.61a2.32,2.32,0,0,1-2.32,2.33H4.27a2.33,2.33,0,0,1-2.33-2.33v-.2H43.26v.2ZM28.05,39.69H17.15a27,27,0,0,0,1.16-6.81h8.58a27.51,27.51,0,0,0,1.16,6.81ZM1.94,4.27A2.34,2.34,0,0,1,4.27,1.94H40.94a2.33,2.33,0,0,1,2.32,2.33v22.2H1.94V4.27ZM40.94,0H4.27A4.27,4.27,0,0,0,0,4.27V28.61a4.27,4.27,0,0,0,4.27,4.27H16.36a25.31,25.31,0,0,1-1.25,6.81h-3a1,1,0,0,0,0,1.94h20.9a1,1,0,0,0,0-1.94H30.1a24.94,24.94,0,0,1-1.26-6.81h12.1a4.27,4.27,0,0,0,4.26-4.27V4.27A4.27,4.27,0,0,0,40.94,0Z"/><path class="cls-1" d="M36.2,13.73,29.6,8.09a1,1,0,1,0-1.26,1.48l5.73,4.9-5.73,4.9a1,1,0,0,0-.11,1.37,1,1,0,0,0,.74.34.94.94,0,0,0,.63-.23l6.6-5.64a1,1,0,0,0,.34-.74,1,1,0,0,0-.34-.74Z"/><path class="cls-1" d="M9,15.21l6.59,5.64a1,1,0,0,0,.63.23.94.94,0,0,0,.74-.34,1,1,0,0,0-.1-1.37l-5.73-4.9,5.73-4.9A1,1,0,0,0,15.6,8.09L9,13.73a1,1,0,0,0-.34.74,1,1,0,0,0,.34.74Z"/><path class="cls-1" d="M19.82,23a1,1,0,0,0,.3,0,1,1,0,0,0,.93-.67L26,7.16a1,1,0,0,0-.63-1.23,1,1,0,0,0-1.22.63l-5,15.23A1,1,0,0,0,19.82,23Z"/></g></g></svg>