<svg xmlns="http://www.w3.org/2000/svg" xmlns:xlink="http://www.w3.org/1999/xlink" viewBox="0 0 44.19 44.19"><defs><style>.cls-1{fill:url(#linear-gradient);}</style><linearGradient id="linear-gradient" x1="38.28" y1="7.65" x2="12.89" y2="51.63" gradientUnits="userSpaceOnUse"><stop offset="0.01" stop-color="#39bcea"/><stop offset="1" stop-color="#2892ce"/></linearGradient></defs><title>Asset 67</title><g id="Layer_2" data-name="Layer 2"><g id="Layer_1-2" data-name="Layer 1"><path class="cls-1" d="M28.68,22h-.43c.15-.14.29-.29.43-.44h.73a3.81,3.81,0,0,0,3.8-3.81V16.49a3.42,3.42,0,0,0,0-5.63,11.11,11.11,0,0,0-22.21,0,3.44,3.44,0,0,0,2,6.26h.38A8.89,8.89,0,0,0,15.94,22h-.43A11.13,11.13,0,0,0,4.39,33.07v9.65H6.14V33.07a9.36,9.36,0,0,1,8.93-9.35l2.88,0,1.85.42a8.62,8.62,0,0,0,4.59,0l1.81-.42,2.91,0a9.36,9.36,0,0,1,8.94,9.35v9.65H39.8V33.07A11.13,11.13,0,0,0,28.68,22ZM26,21.51a7.51,7.51,0,0,1-1,.53,7.18,7.18,0,0,1-10.13-6.53V12.67A6.93,6.93,0,0,0,20,10c1.64,2,5.16,3.32,9.29,3.49v2.07a7.08,7.08,0,0,1-1.41,4.24H22v1.76ZM22.09,4.68a7.18,7.18,0,0,1,7.17,7c-5.24-.22-8.49-2.35-8.49-4.22a.88.88,0,0,0-1.75,0c0,1.67-1.72,3.13-4,3.45A7.14,7.14,0,0,1,22.09,4.68Zm7.89,15a8.81,8.81,0,0,0,.88-2.54h.38l.22,0v.6A2,2,0,0,1,30,19.66Zm1.26-9.42h-.38a8.91,8.91,0,0,0-17.53,0h-.55a9.35,9.35,0,0,1,18.63,0ZM31,15.36V12h.22a1.68,1.68,0,1,1,0,3.36ZM13.17,12v3.36H13A1.68,1.68,0,1,1,13,12Z"/><path class="cls-1" d="M36.14,42.44V33.07a3.8,3.8,0,0,0-3.8-3.8H11.85a3.8,3.8,0,0,0-3.8,3.8v9.37H0v1.75H44.19V42.44ZM9.8,33.07a2.05,2.05,0,0,1,2-2.05H32.34a2.05,2.05,0,0,1,2,2.05v9.37H9.8Z"/></g></g></svg>