<svg xmlns="http://www.w3.org/2000/svg" xmlns:xlink="http://www.w3.org/1999/xlink" viewBox="0 0 61.16 61.16"><defs><style>.cls-1{fill:url(#linear-gradient);}.cls-2{fill:none;}</style><linearGradient id="linear-gradient" x1="44.39" y1="9.08" x2="14.37" y2="61.08" gradientUnits="userSpaceOnUse"><stop offset="0" stop-color="#53c3ea"/><stop offset="0.27" stop-color="#45b3df"/><stop offset="0.79" stop-color="#1f88c4"/><stop offset="1" stop-color="#0f76b8"/></linearGradient></defs><title>Asset 52</title><g id="Layer_2" data-name="Layer 2"><g id="Layer_1-2" data-name="Layer 1"><path class="cls-1" d="M54.68,18.17H38.52V6.3a1.05,1.05,0,0,0-1.05-1.06H8.38A1.05,1.05,0,0,0,7.32,6.3V56.4a1.05,1.05,0,0,0,1.06,1.05h46.3a1.05,1.05,0,0,0,1.06-1.05V19.23a1.05,1.05,0,0,0-1.06-1.06ZM36.41,19.23V55.35h-27v-48h27ZM53.63,55.34H38.52V20.27H53.63Z"/><path class="cls-1" d="M42.64,25.64h6.87a1.06,1.06,0,1,0,0-2.12H42.64a1.06,1.06,0,1,0,0,2.12Z"/><path class="cls-1" d="M42.64,30.93h6.87a1.06,1.06,0,1,0,0-2.11H42.64a1.06,1.06,0,1,0,0,2.11Z"/><path class="cls-1" d="M42.64,36.22h6.87a1.06,1.06,0,1,0,0-2.11H42.64a1.06,1.06,0,1,0,0,2.11Z"/><path class="cls-1" d="M42.64,41.52h6.87a1.06,1.06,0,1,0,0-2.11H42.64a1.06,1.06,0,1,0,0,2.11Z"/><path class="cls-1" d="M42.64,46.81h6.87a1.06,1.06,0,0,0,0-2.12H42.64a1.06,1.06,0,0,0,0,2.12Z"/><path class="cls-1" d="M42.64,52.1h6.87a1.06,1.06,0,1,0,0-2.11H42.64a1.06,1.06,0,1,0,0,2.11Z"/><path class="cls-1" d="M14.32,15.58a1.05,1.05,0,0,0,1.06-1.05V12.19a1.06,1.06,0,0,0-2.11,0v2.34a1,1,0,0,0,1.05,1.05Z"/><path class="cls-1" d="M20.06,15.58a1,1,0,0,0,1.05-1.05V12.19a1.06,1.06,0,0,0-2.11,0v2.34a1.05,1.05,0,0,0,1.06,1.05Z"/><path class="cls-1" d="M25.78,15.58a1.05,1.05,0,0,0,1.06-1.05V12.19a1.06,1.06,0,0,0-2.11,0v2.34a1.06,1.06,0,0,0,1.05,1.05Z"/><path class="cls-1" d="M31.52,15.58a1,1,0,0,0,1.05-1.05V12.19a1.06,1.06,0,0,0-2.11,0v2.34a1.05,1.05,0,0,0,1.06,1.05Z"/><path class="cls-1" d="M14.32,22.81a1.05,1.05,0,0,0,1.06-1V19.41a1.06,1.06,0,1,0-2.11,0v2.35a1.06,1.06,0,0,0,1.05,1Z"/><path class="cls-1" d="M20.06,22.81a1,1,0,0,0,1.05-1V19.41a1.06,1.06,0,1,0-2.11,0v2.35a1.06,1.06,0,0,0,1.06,1Z"/><path class="cls-1" d="M25.78,22.81a1.05,1.05,0,0,0,1.06-1V19.41a1.06,1.06,0,1,0-2.11,0v2.35a1.06,1.06,0,0,0,1.05,1Z"/><path class="cls-1" d="M31.52,22.81a1,1,0,0,0,1.05-1V19.41a1.06,1.06,0,1,0-2.11,0v2.35a1.06,1.06,0,0,0,1.06,1Z"/><path class="cls-1" d="M14.32,30A1.05,1.05,0,0,0,15.38,29V26.64a1.06,1.06,0,1,0-2.11,0V29A1.05,1.05,0,0,0,14.32,30Z"/><path class="cls-1" d="M20.06,30A1,1,0,0,0,21.11,29V26.64a1.06,1.06,0,1,0-2.11,0V29A1.05,1.05,0,0,0,20.06,30Z"/><path class="cls-1" d="M25.78,30A1.05,1.05,0,0,0,26.84,29V26.64a1.06,1.06,0,1,0-2.11,0V29A1.06,1.06,0,0,0,25.78,30Z"/><path class="cls-1" d="M31.52,30A1.05,1.05,0,0,0,32.57,29V26.64a1.06,1.06,0,1,0-2.11,0V29A1.05,1.05,0,0,0,31.52,30Z"/><path class="cls-1" d="M14.32,37.25a1.05,1.05,0,0,0,1.06-1V33.86a1.06,1.06,0,0,0-2.11,0V36.2a1.06,1.06,0,0,0,1.05,1Z"/><path class="cls-1" d="M20.06,37.25a1,1,0,0,0,1.05-1V33.86a1.06,1.06,0,0,0-2.11,0V36.2a1.06,1.06,0,0,0,1.06,1Z"/><path class="cls-1" d="M25.78,37.25a1.05,1.05,0,0,0,1.06-1V33.86a1.06,1.06,0,0,0-2.11,0V36.2a1.06,1.06,0,0,0,1.05,1Z"/><path class="cls-1" d="M31.52,37.25a1,1,0,0,0,1.05-1V33.86a1.06,1.06,0,0,0-2.11,0V36.2a1.06,1.06,0,0,0,1.06,1Z"/><path class="cls-1" d="M14.32,44.47a1.05,1.05,0,0,0,1.06-1V41.08a1.06,1.06,0,0,0-2.11,0v2.34a1,1,0,0,0,1.05,1Z"/><path class="cls-1" d="M20.06,44.47a1,1,0,0,0,1.05-1V41.08a1.06,1.06,0,0,0-2.11,0v2.34a1.05,1.05,0,0,0,1.06,1Z"/><path class="cls-1" d="M25.78,44.47a1.05,1.05,0,0,0,1.06-1V41.08a1.06,1.06,0,0,0-2.11,0v2.34a1.06,1.06,0,0,0,1.05,1Z"/><path class="cls-1" d="M31.52,44.47a1,1,0,0,0,1.05-1V41.08a1.06,1.06,0,0,0-2.11,0v2.34a1.05,1.05,0,0,0,1.06,1Z"/><path class="cls-1" d="M14.32,51.7a1.05,1.05,0,0,0,1.06-1.06V48.3a1.06,1.06,0,1,0-2.11,0v2.34a1.06,1.06,0,0,0,1.05,1.06Z"/><path class="cls-1" d="M20.06,51.7a1,1,0,0,0,1.05-1.06V48.3a1.06,1.06,0,1,0-2.11,0v2.34a1.06,1.06,0,0,0,1.06,1.06Z"/><path class="cls-1" d="M25.78,51.7a1.05,1.05,0,0,0,1.06-1.06V48.3a1.06,1.06,0,1,0-2.11,0v2.34a1.07,1.07,0,0,0,1.05,1.06Z"/><path class="cls-1" d="M31.52,51.7a1.05,1.05,0,0,0,1.05-1.06V48.3a1.06,1.06,0,1,0-2.11,0v2.34a1.06,1.06,0,0,0,1.06,1.06Z"/><rect class="cls-2" width="61.16" height="61.16"/></g></g></svg>