<svg xmlns="http://www.w3.org/2000/svg" xmlns:xlink="http://www.w3.org/1999/xlink" viewBox="0 0 61.16 61.16"><defs><style>.cls-1{fill:url(#linear-gradient);}.cls-2{fill:none;}</style><linearGradient id="linear-gradient" x1="50.98" y1="9.9" x2="20.86" y2="62.07" gradientTransform="translate(-2)" gradientUnits="userSpaceOnUse"><stop offset="0" stop-color="#53c3ea"/><stop offset="0.27" stop-color="#45b3df"/><stop offset="0.79" stop-color="#1f88c4"/><stop offset="1" stop-color="#0f76b8"/></linearGradient></defs><title>Asset 55</title><g id="Layer_2" data-name="Layer 2"><g id="Layer_1-2" data-name="Layer 1"><path class="cls-1" d="M37.81,30.42h-.47l.48-.48h.79a4.18,4.18,0,0,0,4.18-4.18V24.43a3.77,3.77,0,0,0,0-6.18,12.19,12.19,0,0,0-24.38,0,3.77,3.77,0,0,0,2.15,6.87H21a9.85,9.85,0,0,0,2.86,5.3h-.47a12.22,12.22,0,0,0-12.2,12.21v10.6h1.92V42.63a10.26,10.26,0,0,1,9.8-10.26l3.16,0,2,.47a9.58,9.58,0,0,0,5,0l2-.46,3.2,0a10.26,10.26,0,0,1,9.8,10.26v10.6H50V42.63A12.22,12.22,0,0,0,37.81,30.42Zm-4,.1a8.3,8.3,0,0,1-6.49,0,7.9,7.9,0,0,1-4.63-7.17V20.24a7.56,7.56,0,0,0,5.55-3c1.8,2.19,5.66,3.65,10.19,3.83v2.27A7.76,7.76,0,0,1,36.91,28,7.91,7.91,0,0,1,33.83,30.52Zm-3.25-19a7.88,7.88,0,0,1,7.87,7.68c-5.76-.24-9.32-2.58-9.32-4.63a1,1,0,1,0-1.92,0c0,1.83-1.89,3.44-4.43,3.78A7.84,7.84,0,0,1,30.58,11.47Zm8.66,16.44a9.73,9.73,0,0,0,1-2.79h.41l.24,0v.66A2.23,2.23,0,0,1,39.24,27.91Zm1.38-10.34h-.41a9.78,9.78,0,0,0-19.25,0h-.42l-.19,0a10.27,10.27,0,0,1,20.46,0Zm-.24,5.63V19.5h.24a1.85,1.85,0,0,1,0,3.7ZM20.79,19.5v3.7h-.25a1.85,1.85,0,0,1,0-3.7Z"/><path class="cls-1" d="M46,52.91V42.63a4.18,4.18,0,0,0-4.18-4.18H19.34a4.18,4.18,0,0,0-4.17,4.18V52.91H6.33v1.92h48.5V52.91ZM17.09,42.63a2.25,2.25,0,0,1,2.25-2.25H41.82a2.26,2.26,0,0,1,2.26,2.25V52.91h-27Z"/><circle class="cls-1" cx="12.01" cy="21.39" r="1.27"/><circle class="cls-1" cx="12.01" cy="25.19" r="1.27"/><circle class="cls-1" cx="12.01" cy="29" r="1.27"/><circle class="cls-1" cx="48.78" cy="11.25" r="1.27"/><circle class="cls-1" cx="48.78" cy="15.05" r="1.27"/><circle class="cls-1" cx="48.78" cy="18.85" r="1.27"/><rect class="cls-2" width="61.16" height="61.16"/></g></g></svg>