<svg xmlns="http://www.w3.org/2000/svg" xmlns:xlink="http://www.w3.org/1999/xlink" viewBox="0 0 61.16 61.16"><defs><style>.cls-1{fill:url(#linear-gradient);}.cls-2{fill:none;}</style><linearGradient id="linear-gradient" x1="46.23" y1="1.96" x2="17.11" y2="52.4" gradientTransform="translate(-2)" gradientUnits="userSpaceOnUse"><stop offset="0" stop-color="#53c3ea"/><stop offset="0.27" stop-color="#45b3df"/><stop offset="0.79" stop-color="#1f88c4"/><stop offset="1" stop-color="#0f76b8"/></linearGradient></defs><title>Asset 54</title><g id="Layer_2" data-name="Layer 2"><g id="Layer_1-2" data-name="Layer 1"><path class="cls-1" d="M54.11,39.46a2.65,2.65,0,0,1-2.65,2.65H9.7a2.65,2.65,0,0,1-2.64-2.65v-.23H54.11v.23ZM36.79,52.07H24.37a30.31,30.31,0,0,0,1.32-7.75h9.78a30.75,30.75,0,0,0,1.32,7.75ZM7.06,11.74A2.65,2.65,0,0,1,9.7,9.09H51.46a2.65,2.65,0,0,1,2.64,2.65V37h-47V11.74Zm44.4-4.86H9.7a4.87,4.87,0,0,0-4.86,4.86V39.46A4.87,4.87,0,0,0,9.7,44.32H23.48a29,29,0,0,1-1.43,7.75H18.68a1.11,1.11,0,0,0,0,2.22h23.8a1.11,1.11,0,1,0,0-2.22H39.12a28.25,28.25,0,0,1-1.43-7.75H51.46a4.87,4.87,0,0,0,4.86-4.86V11.74a4.87,4.87,0,0,0-4.86-4.86Z"/><path class="cls-1" d="M46.06,23,38.55,16.6a1.11,1.11,0,0,0-1.44,1.69l6.53,5.58-6.53,5.58A1.11,1.11,0,0,0,37,31a1.12,1.12,0,0,0,.84.38,1.08,1.08,0,0,0,.72-.26l7.51-6.42a1.1,1.1,0,0,0,.39-.84,1.08,1.08,0,0,0-.39-.84Z"/><path class="cls-1" d="M15.1,24.71l7.51,6.42a1.1,1.1,0,0,0,.72.26,1.12,1.12,0,0,0,.84-.38,1.1,1.1,0,0,0-.12-1.56l-6.53-5.58,6.53-5.58a1.11,1.11,0,0,0-1.44-1.69L15.1,23a1.12,1.12,0,0,0-.39.84,1.13,1.13,0,0,0,.39.84Z"/><path class="cls-1" d="M27.42,33.59a1,1,0,0,0,.34.06,1.1,1.1,0,0,0,1-.77l5.65-17.34a1.11,1.11,0,1,0-2.11-.69L26.71,32.2a1.1,1.1,0,0,0,.71,1.39Z"/><rect class="cls-2" width="61.16" height="61.16"/></g></g></svg>