<svg xmlns="http://www.w3.org/2000/svg" xmlns:xlink="http://www.w3.org/1999/xlink" viewBox="0 0 102.94 84.47"><defs><style>.cls-1{fill:url(#linear-gradient);}.cls-2{fill:none;}</style><linearGradient id="linear-gradient" x1="-2148.33" y1="9.52" x2="-2190.36" y2="82.31" gradientTransform="translate(2219.56)" gradientUnits="userSpaceOnUse"><stop offset="0" stop-color="#4c4b4a"/><stop offset="1" stop-color="#2e2d2c"/></linearGradient></defs><title>Asset 56</title><g id="Layer_2" data-name="Layer 2"><g id="Layer_1-2" data-name="Layer 1"><path class="cls-1" d="M80.94,23.63l.09-.15a1,1,0,0,0-.24-1.1L61.73,4.07a1,1,0,0,0-.83-.27H30.66a5,5,0,0,0-4.95,5V61a1.07,1.07,0,0,0,.9.92,1.09,1.09,0,0,0,1.1-1.11V8.74a3,3,0,0,1,2.95-2.95H60V19.15a5,5,0,0,0,4.95,5H79.1V72a3,3,0,0,1-3,3H41.63a1,1,0,1,0-.22,2H76.14a5,5,0,0,0,5-5Q81,47.83,80.94,23.63ZM65,22.1a3,3,0,0,1-2.95-3v-12l15.57,15Z"/><path class="cls-1" d="M46.37,41.73l10.7,0h0a1,1,0,0,0,1-1,1,1,0,0,0-1-1l-10.7,0a1,1,0,0,0-1,1A1,1,0,0,0,46.37,41.73Z"/><path class="cls-1" d="M57.05,51,46.34,51a1,1,0,0,0-1,1,1,1,0,0,0,1,1L57,53h0a1,1,0,0,0,0-2Z"/><path class="cls-1" d="M42.74,47.34l17.93.06h0a1,1,0,0,0,1-1,1,1,0,0,0-1-1l-17.93-.06a1,1,0,0,0-1,1A1,1,0,0,0,42.74,47.34Z"/><path class="cls-1" d="M40.92,65.66l1.87-2.22a19.27,19.27,0,0,0,9.15,2.31c.54,0,1.08,0,1.63-.06a19.61,19.61,0,1,0-17.13-7.63l-1.88,2.21a6.18,6.18,0,0,0-4.46,2.17l-6.8,8.1a6.29,6.29,0,0,0-1.45,4.24A6.37,6.37,0,0,0,24,79.22a6.25,6.25,0,0,0,4,1.46l.51,0A6.23,6.23,0,0,0,32.7,78.5l7-8.39a6.36,6.36,0,0,0,1.08-2.33A6.58,6.58,0,0,0,40.92,65.66Zm-6.45-18A17.57,17.57,0,0,1,50.53,28.69c.49,0,1-.06,1.46-.06a17.56,17.56,0,1,1-9.54,32.29c-.18-.11-.36-.22-.54-.35-.42-.3-.84-.61-1.24-1-.16-.13-.3-.28-.45-.41s-.51-.46-.75-.71a8.09,8.09,0,0,1-.56-.61A17.33,17.33,0,0,1,34.47,47.63Zm4.41,17.94a4.22,4.22,0,0,1,0,1.77,3.91,3.91,0,0,1-.69,1.52l-7,8.35a4.26,4.26,0,0,1-2.83,1.45,4.2,4.2,0,0,1-3-1,4.17,4.17,0,0,1-.49-5.87l6.8-8.09a4.2,4.2,0,0,1,1.67-1.19,4.09,4.09,0,0,1,1.51-.28H35l.48,0,2.28-2.68,0,0a21,21,0,0,0,1.53,1.45l.07.06,0,0,.24.17c.41.34.83.66,1.26,1l.13.1-2.28,2.68Z"/><rect class="cls-2" width="102.94" height="84.47"/></g></g></svg>