<svg xmlns="http://www.w3.org/2000/svg" xmlns:xlink="http://www.w3.org/1999/xlink" viewBox="0 0 102.94 84.47"><defs><style>.cls-1{fill:url(#linear-gradient);}.cls-2{fill:url(#linear-gradient-2);}.cls-3{fill:url(#linear-gradient-3);}.cls-4{fill:none;}</style><linearGradient id="linear-gradient" x1="61.99" y1="23.36" x2="41.33" y2="59.13" gradientUnits="userSpaceOnUse"><stop offset="0" stop-color="#fabe1d"/><stop offset="1" stop-color="#f9c553"/></linearGradient><linearGradient id="linear-gradient-2" x1="61.65" y1="42.93" x2="38.29" y2="83.38" xlink:href="#linear-gradient"/><linearGradient id="linear-gradient-3" x1="64.3" y1="1.28" x2="41.26" y2="41.19" xlink:href="#linear-gradient"/></defs><title>Asset 52</title><g id="Layer_2" data-name="Layer 2"><g id="Layer_1-2" data-name="Layer 1"><path class="cls-1" d="M53.28,57.09,50.87,57a17.65,17.65,0,0,1-10.68-5,1.38,1.38,0,0,0-1-.38,1.37,1.37,0,0,0-.77,2.51A20.61,20.61,0,0,0,50.76,59.5v4.32a1.32,1.32,0,1,0,2.63,0V59.55c6.84-.22,11.72-4.32,11.72-10.13,0-5.37-3.51-8.49-11.83-10.24l-2.41-.54c-7.06-1.7-8.81-4-8.81-7.73,0-3.94,3.5-7.12,8.81-7.22l2.41.16a15.57,15.57,0,0,1,8.21,3.56,1.34,1.34,0,0,0,1,.38,1.4,1.4,0,0,0,1.42-1.37,1.54,1.54,0,0,0-.76-1.26,17.89,17.89,0,0,0-9.75-3.83V19.14a1.32,1.32,0,0,0-2.63,0v2.08c-6.68.17-11.5,4.38-11.5,9.91s3.4,8.49,11.61,10.3l2.41.55c7.12,1.58,9,3.88,9,7.66C62.31,53.8,58.75,57,53.28,57.09Z"/><path class="cls-2" d="M87.78,58a1.07,1.07,0,0,0-1.42.72,38.5,38.5,0,0,1-67.95,3.42l5.69,1.46a1,1,0,0,0,.5-1.94l-8-2.06a1,1,0,0,0-1.22.72l-2,7.79a1,1,0,0,0,.72,1.21.77.77,0,0,0,.25,0,1,1,0,0,0,1-.76l1.4-5.47a40.51,40.51,0,0,0,71.57-3.69A1.08,1.08,0,0,0,87.78,58Z"/><path class="cls-3" d="M89.1,15.61a1,1,0,0,0-1.29.59L86,21.1a40.53,40.53,0,0,0-71.08,3.67,1,1,0,1,0,1.73,1,38.52,38.52,0,0,1,67.84-3.32l-6-2.23a1,1,0,0,0-1.28.59,1,1,0,0,0,.59,1.28L85.59,25a1.09,1.09,0,0,0,.35.07,1,1,0,0,0,.94-.66l2.8-7.53A1,1,0,0,0,89.1,15.61Z"/><rect class="cls-4" width="102.94" height="84.47"/></g></g></svg>