<svg xmlns="http://www.w3.org/2000/svg" xmlns:xlink="http://www.w3.org/1999/xlink" viewBox="0 0 102.94 84.47"><defs><style>.cls-1{fill:url(#linear-gradient);}.cls-2{fill:none;}</style><linearGradient id="linear-gradient" x1="-2148.04" y1="13.16" x2="-2182.28" y2="72.47" gradientTransform="translate(2219.56)" gradientUnits="userSpaceOnUse"><stop offset="0" stop-color="#f39200"/><stop offset="0.74" stop-color="#f7a93d"/><stop offset="1" stop-color="#f9b253"/></linearGradient></defs><title>Asset 54</title><g id="Layer_2" data-name="Layer 2"><g id="Layer_1-2" data-name="Layer 1"><path class="cls-1" d="M98.36,31.49,54.14,20.1a10.57,10.57,0,0,0-5.3,0L4.54,31.5a2.59,2.59,0,0,0,0,5L25,41.76V63.5a.81.81,0,0,0,0,.16A3,3,0,0,0,26.76,66a1,1,0,0,0,.16.06l9.24,2.31a2.59,2.59,0,0,0,.28,1.08,2.84,2.84,0,0,0,2.27,1.47h2.21l0,2.61a1,1,0,0,0,0,.23,2.56,2.56,0,0,0,1.14,1.55,2.59,2.59,0,0,0,1.93.33,1,1,0,0,0,.47-.25l6.92-6.6,6.16,6.15a2.59,2.59,0,0,0,1.83.77,2.7,2.7,0,0,0,1-.2,2.6,2.6,0,0,0,1.6-2.4V70.88h2.21a2.61,2.61,0,0,0,2.38-1.61,2.26,2.26,0,0,0,.15-.94L76,66a2.35,2.35,0,0,0,1.66-1A2.28,2.28,0,0,0,78,63.85V41.76l14-3.59v21.5l-3.64,6.41a1,1,0,0,0,0,1l3.78,6.09a1,1,0,0,0,.85.47h0a1,1,0,0,0,.85-.46l3.78-6a1,1,0,0,0,0-1l-3.67-6.49v-22l4.43-1.14a2.59,2.59,0,0,0,0-5Zm-2.8,35.14L93,70.78l-2.62-4.23L92.93,62Zm-30.79,1.9a.62.62,0,0,1-.54.35H61a1,1,0,0,0-1,1v3.19a.6.6,0,0,1-1,.42l-6.84-6.85a1,1,0,0,0-.71-.29,1,1,0,0,0-.69.28l-7.37,7a.58.58,0,0,1-.23-.08A.69.69,0,0,1,43,73.3l-.05-3.44a1,1,0,0,0-1-1H38.78a.78.78,0,0,1-.55-.37.59.59,0,0,1-.06-.4l6.38-6.51a1,1,0,0,0,.25-1,6.84,6.84,0,0,1-.17-3.24,7,7,0,0,1,2-3.7,7.19,7.19,0,0,1,4.66-1.93,7,7,0,0,1,4.58,1.57,6.83,6.83,0,0,1,2.25,7.3,1,1,0,0,0,.25,1l6.35,6.48A.6.6,0,0,1,64.77,68.53ZM76,63.83A.34.34,0,0,1,76,64a.38.38,0,0,1-.23.1L66,66.47l-5.76-5.86a8.83,8.83,0,0,0-3.06-8.83A9,9,0,0,0,42.66,57a8.92,8.92,0,0,0,.07,3.6L37,66.47,27.5,64.1a1,1,0,0,1-.36-.31A.89.89,0,0,1,27,63.4V42.28L48.3,47.77a12.76,12.76,0,0,0,6.34,0L76,42.28ZM97.86,34.58,54.14,45.83a10.5,10.5,0,0,1-5.34,0L5.13,34.59a.67.67,0,0,1-.49-.67.61.61,0,0,1,.44-.49L49.34,22a8.7,8.7,0,0,1,4.3,0L97.86,33.42a.61.61,0,0,1,.45.58A.6.6,0,0,1,97.86,34.58Z"/><path class="cls-1" d="M51.47,54.36a4.35,4.35,0,1,0,4.35,4.35A4.36,4.36,0,0,0,51.47,54.36Zm0,6.7a2.35,2.35,0,1,1,2.35-2.35A2.35,2.35,0,0,1,51.47,61.06Z"/><path class="cls-1" d="M40,16.54a3.87,3.87,0,1,0-3.87-3.87A3.87,3.87,0,0,0,40,16.54Zm0-5.74a1.87,1.87,0,1,1-1.87,1.87A1.87,1.87,0,0,1,40,10.8Z"/><path class="cls-1" d="M51.47,16.54a3.87,3.87,0,1,0-3.86-3.87A3.88,3.88,0,0,0,51.47,16.54Zm0-5.74a1.87,1.87,0,1,1-1.86,1.87A1.87,1.87,0,0,1,51.47,10.8Z"/><path class="cls-1" d="M62.94,16.54a3.87,3.87,0,1,0-3.87-3.87A3.87,3.87,0,0,0,62.94,16.54Zm0-5.74a1.87,1.87,0,1,1-1.87,1.87A1.87,1.87,0,0,1,62.94,10.8Z"/><rect class="cls-2" width="102.94" height="84.47"/></g></g></svg>