<svg xmlns="http://www.w3.org/2000/svg" xmlns:xlink="http://www.w3.org/1999/xlink" viewBox="0 0 102.94 84.47"><defs><style>.cls-1{fill:url(#linear-gradient);}.cls-2{fill:none;}</style><linearGradient id="linear-gradient" x1="-2149.32" y1="82.15" x2="-2193.05" y2="6.41" gradientTransform="translate(2219.56)" gradientUnits="userSpaceOnUse"><stop offset="0" stop-color="#53c3ea"/><stop offset="0.27" stop-color="#45b3df"/><stop offset="0.79" stop-color="#1f88c4"/><stop offset="1" stop-color="#0f76b8"/></linearGradient></defs><title>Asset 53</title><g id="Layer_2" data-name="Layer 2"><g id="Layer_1-2" data-name="Layer 1"><path class="cls-1" d="M59.2,5.76H29a5,5,0,0,0-5,5V37.78a4.4,4.4,0,0,1,2-1v-26a3,3,0,0,1,3-3h30l.19.19a5.05,5.05,0,0,1,.27-.86A6,6,0,0,1,59.2,5.76Z"/><path class="cls-1" d="M78.27,25.69a4.94,4.94,0,0,1-.87-.08V36.2a4.37,4.37,0,0,1,2,1.57V25.57A5.09,5.09,0,0,1,78.27,25.69Z"/><path class="cls-1" d="M77.4,64V74a3,3,0,0,1-3,3H29a3,3,0,0,1-3-3V63.09a4.82,4.82,0,0,1-2-.44V74a5,5,0,0,0,5,5H74.45a5,5,0,0,0,5-5V62.68A4.3,4.3,0,0,1,77.4,64Z"/><path class="cls-1" d="M78.4,26.07H63.29a5,5,0,0,1-4.95-4.95V6.76A1,1,0,0,1,59,5.84,1,1,0,0,1,60,6L79.1,24.35a1,1,0,0,1,.23,1.1A1,1,0,0,1,78.4,26.07Zm-18.06-17v12a3,3,0,0,0,2.95,2.95H75.92Z"/><path class="cls-1" d="M75.9,64.83H27a7.7,7.7,0,0,1-7.69-7.69V42.88A7.7,7.7,0,0,1,27,35.19H75.9a7.7,7.7,0,0,1,7.69,7.69V57.14A7.7,7.7,0,0,1,75.9,64.83ZM27,37.19a5.7,5.7,0,0,0-5.69,5.69V57.14A5.7,5.7,0,0,0,27,62.83H75.9a5.69,5.69,0,0,0,5.69-5.69V42.88a5.69,5.69,0,0,0-5.69-5.69Z"/><path class="cls-1" d="M59.2,5.76H29a5,5,0,0,0-5,5V37.78a4.4,4.4,0,0,1,2-1v-26a3,3,0,0,1,3-3h30l.19.19a5.05,5.05,0,0,1,.27-.86A6,6,0,0,1,59.2,5.76Z"/><path class="cls-1" d="M78.27,25.69a4.94,4.94,0,0,1-.87-.08V36.2a4.37,4.37,0,0,1,2,1.57V25.57A5.09,5.09,0,0,1,78.27,25.69Z"/><path class="cls-1" d="M77.4,64V74a3,3,0,0,1-3,3H29a3,3,0,0,1-3-3V63.09a4.82,4.82,0,0,1-2-.44V74a5,5,0,0,0,5,5H74.45a5,5,0,0,0,5-5V62.68A4.3,4.3,0,0,1,77.4,64Z"/><path class="cls-1" d="M78.4,26.07H63.29a5,5,0,0,1-4.95-4.95V6.76A1,1,0,0,1,59,5.84,1,1,0,0,1,60,6L79.1,24.35a1,1,0,0,1,.23,1.1A1,1,0,0,1,78.4,26.07Zm-18.06-17v12a3,3,0,0,0,2.95,2.95H75.92Z"/><path class="cls-1" d="M75.9,64.83H27a7.7,7.7,0,0,1-7.69-7.69V42.88A7.7,7.7,0,0,1,27,35.19H75.9a7.7,7.7,0,0,1,7.69,7.69V57.14A7.7,7.7,0,0,1,75.9,64.83ZM27,37.19a5.7,5.7,0,0,0-5.69,5.69V57.14A5.7,5.7,0,0,0,27,62.83H75.9a5.69,5.69,0,0,0,5.69-5.69V42.88a5.69,5.69,0,0,0-5.69-5.69Z"/><path class="cls-1" d="M59.2,5.76H29a5,5,0,0,0-5,5V37.78a4.4,4.4,0,0,1,2-1v-26a3,3,0,0,1,3-3h30l.19.19a5.05,5.05,0,0,1,.27-.86A6,6,0,0,1,59.2,5.76Z"/><path class="cls-1" d="M78.27,25.69a4.94,4.94,0,0,1-.87-.08V36.2a4.37,4.37,0,0,1,2,1.57V25.57A5.09,5.09,0,0,1,78.27,25.69Z"/><path class="cls-1" d="M77.4,64V74a3,3,0,0,1-3,3H29a3,3,0,0,1-3-3V63.09a4.82,4.82,0,0,1-2-.44V74a5,5,0,0,0,5,5H74.45a5,5,0,0,0,5-5V62.68A4.3,4.3,0,0,1,77.4,64Z"/><path class="cls-1" d="M78.4,26.07H63.29a5,5,0,0,1-4.95-4.95V6.76A1,1,0,0,1,59,5.84,1,1,0,0,1,60,6L79.1,24.35a1,1,0,0,1,.23,1.1A1,1,0,0,1,78.4,26.07Zm-18.06-17v12a3,3,0,0,0,2.95,2.95H75.92Z"/><path class="cls-1" d="M75.9,64.83H27a7.7,7.7,0,0,1-7.69-7.69V42.88A7.7,7.7,0,0,1,27,35.19H75.9a7.7,7.7,0,0,1,7.69,7.69V57.14A7.7,7.7,0,0,1,75.9,64.83ZM27,37.19a5.7,5.7,0,0,0-5.69,5.69V57.14A5.7,5.7,0,0,0,27,62.83H75.9a5.69,5.69,0,0,0,5.69-5.69V42.88a5.69,5.69,0,0,0-5.69-5.69Z"/><path class="cls-1" d="M36.68,45.31a1,1,0,0,1,1-1h3.19c3.52,0,6,2.42,6,5.57v0a5.61,5.61,0,0,1-6,5.61H37.67a1,1,0,0,1-1-1Zm4.18,8.41A3.65,3.65,0,0,0,44.75,50v0a3.68,3.68,0,0,0-3.89-3.81H38.65v7.62Z"/><path class="cls-1" d="M48.87,45.31a1,1,0,0,1,1-1h6.53a.9.9,0,1,1,0,1.79H50.84v3.06h4.83a.9.9,0,1,1,0,1.8H50.84v3.66a1,1,0,0,1-2,0Z"/><path class="cls-1" d="M62.46,55.71a4.22,4.22,0,0,1-4.34-4.39v0a4.19,4.19,0,0,1,4.13-4.4,4,4,0,0,1,4,4.16.91.91,0,0,1-.92.93H60.06a2.34,2.34,0,0,0,2.43,2.14,3,3,0,0,0,2-.73.72.72,0,0,1,.5-.18.76.76,0,0,1,.76.79.86.86,0,0,1-.25.59A4.34,4.34,0,0,1,62.46,55.71Zm1.92-5a2.2,2.2,0,0,0-2.15-2.23A2.3,2.3,0,0,0,60,50.7Z"/><rect class="cls-2" width="102.94" height="84.47"/></g></g></svg>