<svg xmlns="http://www.w3.org/2000/svg" xmlns:xlink="http://www.w3.org/1999/xlink" viewBox="0 0 102.94 84.47"><defs><style>.cls-1{fill:url(#linear-gradient);}.cls-2{fill:none;}</style><linearGradient id="linear-gradient" x1="-2148.98" y1="9.16" x2="-2187.17" y2="75.3" gradientTransform="translate(2219.56)" gradientUnits="userSpaceOnUse"><stop offset="0" stop-color="#07d3bf"/><stop offset="0.19" stop-color="#10ceaf"/><stop offset="0.57" stop-color="#28c084"/><stop offset="1" stop-color="#47ae4c"/></linearGradient></defs><title>Asset 55</title><g id="Layer_2" data-name="Layer 2"><g id="Layer_1-2" data-name="Layer 1"><path class="cls-1" d="M82.73,16.94H20.23a4.94,4.94,0,0,0-4.93,4.94V62.59a4.93,4.93,0,0,0,4.93,4.93h62.5a4.94,4.94,0,0,0,4.94-4.93V21.88A4.94,4.94,0,0,0,82.73,16.94Zm2.93,45.65a2.93,2.93,0,0,1-2.93,2.93H20.23a2.94,2.94,0,0,1-2.93-2.93V21.88A2.93,2.93,0,0,1,20.23,19h62.5a2.93,2.93,0,0,1,2.93,2.93Z"/><path class="cls-1" d="M42.48,43.43H27.83a1,1,0,0,0-1,1v8.94a1,1,0,0,0,1,1H42.48a1,1,0,0,0,1-1V44.44A1,1,0,0,0,42.48,43.43Zm-1,9H28.83V45.44H41.48Z"/><path class="cls-1" d="M74.45,45.49H46.67a1,1,0,0,0,0,2H74.45a1,1,0,0,0,0-2Z"/><path class="cls-1" d="M69.71,50.32H51.41a1,1,0,0,0,0,2h18.3a1,1,0,0,0,0-2Z"/><path class="cls-1" d="M32.08,38.26a.9.9,0,0,0,.32-.67.88.88,0,0,0-.87-.86.83.83,0,0,0-.56.21,2.3,2.3,0,0,1-1.56.56,2.26,2.26,0,0,1,0-4.51,2.4,2.4,0,0,1,1.47.52,1,1,0,0,0,.55.18A.91.91,0,0,0,32,32.05a4.1,4.1,0,0,0-2.56-.78,3.9,3.9,0,0,0-4,4v0a3.86,3.86,0,0,0,3.94,3.95A3.9,3.9,0,0,0,32.08,38.26Z"/><path class="cls-1" d="M34.12,39.16a.92.92,0,0,0,.92-.92V34.53l3.11,4.09a1.13,1.13,0,0,0,.94.52h0a.92.92,0,0,0,.93-.93v-6a.92.92,0,0,0-1.83,0v3.57l-3-3.94a1.13,1.13,0,0,0-.94-.52h-.17a.91.91,0,0,0-.92.92v6A.92.92,0,0,0,34.12,39.16Z"/><path class="cls-1" d="M47.36,34.09a2.66,2.66,0,0,0-3-2.69H42.16a.92.92,0,0,0-.93.92v5.91a.93.93,0,1,0,1.85,0V36.85h1.15C46.13,36.85,47.36,35.77,47.36,34.09Zm-3.07,1.09H43.08V33.09h1.17c.79,0,1.24.38,1.24,1A1.06,1.06,0,0,1,44.29,35.18Z"/><path class="cls-1" d="M46.29,37.82a.94.94,0,0,0,.35.71,3.31,3.31,0,0,0,2,.67,2.78,2.78,0,0,0,2-.72,2.83,2.83,0,0,0,.74-2.08V32.26a.93.93,0,0,0-1.85,0v4.07c0,.77-.3,1.14-.93,1.14a1.42,1.42,0,0,1-.93-.36.92.92,0,0,0-.56-.19A.89.89,0,0,0,46.29,37.82Z"/><path class="cls-1" d="M52.35,40.53A.7.7,0,0,0,53,40.1l4.19-8.75a1.07,1.07,0,0,0,.08-.35.74.74,0,0,0-.73-.71.7.7,0,0,0-.66.43L51.7,39.46h0a1,1,0,0,0-.08.35A.74.74,0,0,0,52.35,40.53Z"/><path class="cls-1" d="M57,35.27a4.05,4.05,0,0,0,6.67,3,.9.9,0,0,0,.32-.67.88.88,0,0,0-.87-.86.83.83,0,0,0-.56.21A2.3,2.3,0,0,1,61,37.5,2.26,2.26,0,0,1,61,33a2.38,2.38,0,0,1,1.47.52,1,1,0,0,0,.55.18.91.91,0,0,0,.55-1.64A4.1,4.1,0,0,0,61,31.27a3.9,3.9,0,0,0-4,4Z"/><path class="cls-1" d="M65.69,39.16a.92.92,0,0,0,.93-.93V36.85h1.15c1.9,0,3.13-1.08,3.13-2.76a2.67,2.67,0,0,0-3-2.69H65.69a.91.91,0,0,0-.92.92v5.91A.91.91,0,0,0,65.69,39.16Zm.93-6.07h1.17c.79,0,1.24.38,1.24,1s-.47,1-1.21,1h-1.2Z"/><path class="cls-1" d="M76.61,31.4h-4.2a.91.91,0,0,0-.92.92v5.91a.93.93,0,1,0,1.85,0v-2h2.79a.85.85,0,0,0,0-1.7H73.34V33.1h3.27a.85.85,0,1,0,0-1.7Z"/><rect class="cls-2" width="102.94" height="84.47"/></g></g></svg>