<svg xmlns="http://www.w3.org/2000/svg" xmlns:xlink="http://www.w3.org/1999/xlink" viewBox="0 0 102.94 84.47"><defs><style>.cls-1{fill:url(#linear-gradient);}.cls-2{fill:none;}</style><linearGradient id="linear-gradient" x1="-2157.49" y1="4.83" x2="-2202.48" y2="82.75" gradientTransform="translate(2219.56)" gradientUnits="userSpaceOnUse"><stop offset="0" stop-color="#e47f7d"/><stop offset="1" stop-color="#f7a5a5"/></linearGradient></defs><title>Asset 57</title><g id="Layer_2" data-name="Layer 2"><g id="Layer_1-2" data-name="Layer 1"><path class="cls-1" d="M37.9,26a3.31,3.31,0,0,1,2.66,3c.13.92.71,1.46,1.5,1.39a1.42,1.42,0,0,0,1.26-1.67A5.76,5.76,0,0,0,41.67,25a6.84,6.84,0,0,0-3.28-1.81c-.22-2-.55-2.52-1.47-2.5s-1.23.57-1.41,2.49l-.83.27a6,6,0,0,0-4.11,5.26,5.91,5.91,0,0,0,3.31,5.45,10.47,10.47,0,0,0,3.69.82,3.11,3.11,0,0,1,2.71,4.27,3.74,3.74,0,0,1-4.05,1.88,3.32,3.32,0,0,1-2.89-2.94c-.13-1-.73-1.6-1.54-1.5a1.48,1.48,0,0,0-1.21,1.86,5.82,5.82,0,0,0,4.17,5c.61.22.85.42.82,1.08a1.39,1.39,0,1,0,2.74,0,.9.9,0,0,1,.79-1.09,5.73,5.73,0,0,0,.94-10.71,9.57,9.57,0,0,0-3.56-.81,3.39,3.39,0,0,1-2.89-2,2.63,2.63,0,0,1,.32-2.82A3.83,3.83,0,0,1,37.9,26Z"/><path class="cls-1" d="M39.23,9.8c.86,0,1.43-.47,1.44-1.18A1.26,1.26,0,0,0,39.26,7.4q-2.31,0-4.62,0c-.86,0-1.42.5-1.41,1.22s.57,1.17,1.44,1.18h4.56Z"/><path class="cls-1" d="M61.25,57.18a1.54,1.54,0,1,0,0,3.07,1.54,1.54,0,0,0,0-3.07Z"/><path class="cls-1" d="M54,58.75a1.57,1.57,0,0,0,1.56,1.5,1.54,1.54,0,1,0-.07-3.07A1.56,1.56,0,0,0,54,58.75Z"/><path class="cls-1" d="M67,57.18a1.54,1.54,0,0,0,0,3.07,1.54,1.54,0,0,0,0-3.07Z"/><path class="cls-1" d="M72.81,57.18a1.54,1.54,0,1,0,1.48,1.57A1.53,1.53,0,0,0,72.81,57.18Z"/><path class="cls-1" d="M72.75,52.13a1.53,1.53,0,1,0,1.54,1.5A1.53,1.53,0,0,0,72.75,52.13Z"/><path class="cls-1" d="M38.49,75.84A1.54,1.54,0,1,0,37,77.36,1.58,1.58,0,0,0,38.49,75.84Z"/><path class="cls-1" d="M91.08,23.65a2.76,2.76,0,0,0-2.31-.53H63V10.47a9.19,9.19,0,0,0-2.3-5.91,9.06,9.06,0,0,0-5.19-2.85H18.37a9,9,0,0,0-7.48,7.47,1,1,0,0,0,0,.17v65.4a9,9,0,0,0,7,8l.21,0h37.4a9,9,0,0,0,5.78-3.41A8.76,8.76,0,0,0,63,74.66V68.5a1,1,0,0,0-1.66-.63H20.41a1,1,0,0,0-1,1,1,1,0,0,0,.83,1H61v4.72a6.74,6.74,0,0,1-1.31,3.56,7,7,0,0,1-4.41,2.62h-37a7,7,0,0,1-5.35-6.11V14.75H53.2a1,1,0,0,0,.17-2H12.88V9.44a7.15,7.15,0,0,1,2.36-4.16A7,7,0,0,1,18.62,3.7H55.27a7,7,0,0,1,4,2.2A7.08,7.08,0,0,1,61,10.48V24.12a1,1,0,0,0,1,1H88.89a1.36,1.36,0,0,0,.27,0,.88.88,0,0,1,.66.12.78.78,0,0,1,.23.78L85.64,45.26a.51.51,0,0,0,0,.13.68.68,0,0,1-.23.42.65.65,0,0,1-.42.13H82.8a1,1,0,0,0-.93.66,3.7,3.7,0,0,1-3.45,2.44,3.61,3.61,0,0,1-2-.61,3.53,3.53,0,0,1-1.18-1.31.9.9,0,0,0-.21-.27,3.49,3.49,0,0,0-1.41-.8,3.56,3.56,0,0,0-2.22.07,4.08,4.08,0,0,0-2.05,1.54,3.15,3.15,0,0,1-1,.92,3.34,3.34,0,0,1-1.76.48,3.65,3.65,0,0,1-1.85-.53,3.58,3.58,0,0,1-1.32-1.39,1,1,0,0,0-.39-.4l-1.19-.67a.92.92,0,0,0-.49-.13h-.9a.66.66,0,0,1-.48-.13.68.68,0,0,1-.24-.45c0-.05,0-.09,0-.13L54.29,21.51a1,1,0,0,0-1-.78H49.86a.58.58,0,0,1-.45-.2.51.51,0,0,1-.15-.39.63.63,0,0,1,.7-.48h4.48a.56.56,0,0,1,.39.09.76.76,0,0,1,.31.56l.72,3.14a1.78,1.78,0,0,0,.43,1.05,1.07,1.07,0,0,0,1.2.06A1.1,1.1,0,0,0,58,23.5a1.38,1.38,0,0,1-.17-.52.53.53,0,0,1,0,.13h0l-.72-3.16a2.75,2.75,0,0,0-1.21-1.89,2.58,2.58,0,0,0-1.53-.39H50A2.57,2.57,0,0,0,47.27,20a2.54,2.54,0,0,0,.65,1.92,2.58,2.58,0,0,0,1.93.86h2.67l5.25,22.91A2.66,2.66,0,0,0,60.66,48h.46l.72.41a5.63,5.63,0,0,0,1.89,1.89,5.7,5.7,0,0,0,2.87.82,5.46,5.46,0,0,0,2.83-.77A5,5,0,0,0,71,48.81,2.19,2.19,0,0,1,72,48a1.72,1.72,0,0,1,1,0,1.54,1.54,0,0,1,.51.26,5.58,5.58,0,0,0,1.74,1.87,5.64,5.64,0,0,0,3.12.94,5.81,5.81,0,0,0,3.51-1.25A5.67,5.67,0,0,0,83.46,48h1.48a2.72,2.72,0,0,0,1.7-.56,2.67,2.67,0,0,0,1-1.73L92,26.44A2.75,2.75,0,0,0,91.08,23.65Z"/><path class="cls-1" d="M68.13,44.4a1.56,1.56,0,0,0-1.53-1.53,1.54,1.54,0,1,0,1.53,1.53Z"/><path class="cls-1" d="M80,44.42a1.53,1.53,0,1,0-1.55,1.52A1.59,1.59,0,0,0,80,44.42Z"/><path class="cls-1" d="M22,57.65a4.52,4.52,0,0,0,1.28,3.25,4.69,4.69,0,0,0,3.39,1.38l8.73,0,11.75,0a5.15,5.15,0,0,0,2.14-.5,4.54,4.54,0,0,0-2-8.62c-2.38,0-4.76,0-7.15,0H33.9c-2.4,0-4.8,0-7.2,0A4.56,4.56,0,0,0,22,57.65Zm8.83-2.52h9.29c2.37,0,4.75,0,7.12,0a2.55,2.55,0,0,1,2.54,2A2.51,2.51,0,0,1,48.47,60a3.13,3.13,0,0,1-1.3.31c-7,0-13.89,0-20.46,0a2.72,2.72,0,0,1-2-.78A2.51,2.51,0,0,1,24,57.68a2.57,2.57,0,0,1,2.69-2.54Z"/><rect class="cls-2" width="102.94" height="84.47"/></g></g></svg>